<mxfile host="app.diagrams.net" agent="Mozilla/5.0 (Windows NT 10.0; Win64; x64) AppleWebKit/537.36 (KHTML, like Gecko) Chrome/134.0.0.0 Safari/537.36" version="26.1.1">
  <diagram name="Page-1" id="03018318-947c-dd8e-b7a3-06fadd420f32">
    <mxGraphModel dx="2600" dy="950" grid="0" gridSize="10" guides="1" tooltips="1" connect="1" arrows="1" fold="1" page="1" pageScale="1" pageWidth="1100" pageHeight="850" background="none" math="0" shadow="0">
      <root>
        <mxCell id="0" />
        <mxCell id="1" parent="0" />
        <mxCell id="677b7b8949515195-1" value="" style="whiteSpace=wrap;html=1;rounded=0;shadow=0;labelBackgroundColor=none;strokeColor=#999999;strokeWidth=1;fillColor=none;fontFamily=Verdana;fontSize=12;fontColor=#000000;align=center;comic=1;" parent="1" vertex="1">
          <mxGeometry x="-1060" y="20" width="767" height="1986" as="geometry" />
        </mxCell>
        <mxCell id="677b7b8949515195-9" value="" style="line;strokeWidth=1;html=1;rounded=0;shadow=0;labelBackgroundColor=none;fillColor=none;fontFamily=Verdana;fontSize=14;fontColor=#000000;align=center;comic=1;strokeColor=#666666;" parent="1" vertex="1">
          <mxGeometry x="-1060" y="64" width="766" height="10" as="geometry" />
        </mxCell>
        <mxCell id="4oO6HebWnoat48gNqgbb-4" value="" style="verticalLabelPosition=bottom;shadow=0;dashed=0;align=center;html=1;verticalAlign=top;strokeWidth=1;shape=mxgraph.mockup.graphics.simpleIcon;strokeColor=#666666;" vertex="1" parent="1">
          <mxGeometry x="-958" y="31" width="25" height="22" as="geometry" />
        </mxCell>
        <mxCell id="4oO6HebWnoat48gNqgbb-6" value="&lt;span&gt;PORTAL&lt;/span&gt;" style="text;html=1;align=center;verticalAlign=middle;whiteSpace=wrap;rounded=0;fontStyle=1;fontFamily=Tahoma;fontSize=11;" vertex="1" parent="1">
          <mxGeometry x="-935" y="22" width="60" height="30" as="geometry" />
        </mxCell>
        <mxCell id="4oO6HebWnoat48gNqgbb-7" value="Kota Denpasar" style="text;html=1;align=left;verticalAlign=middle;whiteSpace=wrap;rounded=0;fontSize=11;fontFamily=Tahoma;" vertex="1" parent="1">
          <mxGeometry x="-929" y="38" width="122" height="17" as="geometry" />
        </mxCell>
        <mxCell id="4oO6HebWnoat48gNqgbb-10" value="" style="shape=image;verticalLabelPosition=bottom;labelBackgroundColor=default;verticalAlign=top;aspect=fixed;imageAspect=0;image=data:image/png,iVBORw0KGgoAAAANSUhEUgAAAoQAAAFkCAYAAAC5GypQAAAAAXNSR0IArs4c6QAAAARnQU1BAACxjwv8YQUAAAAJcEhZcwAADsMAAA7DAcdvqGQAAEvcSURBVHhe7d17VJvnnS/6L+iCJECAuGMMGDD4bseXxG6T2EnqepzUaT3TTOak7fjMZHW3s7oy7WTadVYnpyfpmuWdfVa7O7vj08lkujzdThtPHaclDbVTx4kDqVM7cWIDNtgQccegC0jofhfnDwSGx9yRhC7fz1qs4N/zSnql2NJXz+1NGRsbGwMRERERJa1UsUBEREREyYWBkIiIiCjJMRASERERJTkGQiIiIqIkx0BIRERElOQYCImIiIiSHAMhERERUZJjICQiIiJKcgyEREREREmOgZCIiIgoyTEQEhERESU5BkIiCvHCbveKxQTghd1kgikhnxsRUXikjI2NjYlFIkoigT68+f88h5c/0sELAJJtePbUj3AwSzwwPpne+Dae/FkbgAw8/i91eGaTeES0fIRjT/1PXASAz/4jTn3rXvEAIqIVwx5ConjWfxJP79+P/fv34+lf9YmtC9L0s2/j2EQYBIDV92BjgoRBAOjrm3hd7NDpZuglnPIazv7zNE72izdcLC/sRhNMRhNMlhnOg4hoBTEQEiW1JvzxPfv4r4WP46dnzuP8vz+FMvGwOLbtmy/h+SOP46l/eAnf/5xcbCYiIgZCokQUmjNnssMbCFX0bfjovSZoxXl0ATtMoTyINdUosptgD91mnBf2wdBtZ+rV8tphMk3p8fLaof3kApr6vTOchxf2ziZcuNwGnWvKfbh0aLv8EdoG7Xd6Kafy2mHqbMKF9+Y4BoDXokXTexfw0U0dpj3NQAY2PPoVfHF3EeTTnltIyZfx01OncOrUKZw69VN8eXWovlqol4Tqoed44RMt7FOfR6ht9tdDEPBCd/Oj8fuZoRkAvBYd2i7P8lizvb6f9MEbALwW0/RzAQBX6PxMplkfk4iSE+cQEsWz/pN4+m9/gT4AZUeO4/hXywBcxIv7f4gLAB7+h5+i6Mz3cLJj4tNfjupvvoSX/qIM+OBF7H/hgnCHwMMvnMf3Pwt4O1/Hc//0MppMd9rkqw/i+y8+i/sLQ4XJ+3gYz/98I3733WNosgB48Hmc/wFmPw+JBg//4CU8oXsR3/v3Jkxk0oyHnscv/+l+ZACAqQmv/+wYfvHBeMCZpHkYzx//Pu7PCP3Z3oZf/F9Tn+P4/W/76vN4/qsbYPrV03j6RB+AMvzNfx7HUxOBb0Z9OPn1p/GLHgAVf4PjP5/aW2pH269+iB/+qgmmifORaLDtmz/Cj74UOmqBrwcqtmGbtenOayspwuNHX8IzOzIAeKF772W8ePwPaNNPTW1yVH/9Jbz0lxNnNOX/8w+OY2P9t3GsyQ7gfjz/h79B3zfvfh59k6/Fnf/PRERgDyFRYrvwL9+eHpTghfbnr+LiTD1lU/W/jm9/ayIMypGhGR9q9fa/hR9+60VcnEhwk9rw8v8dCj8Aqmurp7XedR4BEy7885P4uylhEADs772M052hP8iHcC0UBuVZGmiUobrpAn74/16Y7ClsO/Fc6L7lKLv3IO6tyYA8YII8v2w8WIZJ32vfw7dPjIdBeZYGGo0cCJjG52A2iUfP/XqgpwlNJjkyskJD2AEd3nzuRVxwAYAcdu1H42FQIocmPwOhVx/anz+HX0y8PlO0/cdzoTAIoGojqiXiEUREc2MgJEpkWdvwjX8/g/Pnz+Do50LxKKBF3yCAz34f588/j4cnjn3oeZw/fx7f/6wXF/7jZWgDAFCEx/+lDnWnzqDuB6GeO8sFvPyadvIhxumgG67Gl//HKZw5fx4v/UXR9OaJ8/jDL/GN9aFaIAMbvv4Szpw/j7p/2BYq6vDRJ7rxXzMO4hs/eBY/OnkGZ14/hVNv1uHZHaHDrnyI8QzWh6aJILT6y3j+6LM4+rM6nDl1Ct8/EMY46LqAl/9z/DlnPPg8Tr1+CqdO1eH5hzIA2PHmuY+EG8zzelQ8jh+dOoO618+EenUBBD7C786NdxlWf/Uf8ew/HceZM2dw6mQdzvzL49AA01+fKXR6Har/8kc4deY8zv/syxAejYhoXgyERIls+xfx5So5ADmKVo1HCqAPvXMuSG5D643Qr6sfxhc3jfdPZTx4EPeGep50HzVBjCUbvn4U39ihGe/NEnuoJs5DUoSiybSiwX17qiEHkLH5nsmhWa/3Tk9i2WcfQdnwRZz82XP4u6eexn9cDzUE+sZDLcpw757QHfafxN999dv4ya8uQpehCWvvINpb0RbqVc2wfoT/+PFP8JMf/394d+J11GohvqRzvh5r7sG20P+Osr33Tz73tvZQ0FZuw8HdQNsbv8AP/+FpPPnPf8DE6LK2W3wkAOu/gaNf3waNfIbHIiJaAAZCIhLYYZ8Yx5WkTakXoXxi/l3Ae9fijqKiicAZJvYmHPvbw3jy71/EL974CFrT1AUl3sl5hdVHfoRnHyqCHOOLZ9468UN87fDf4RfThsqXyWGfHNrWNb2Ft86N/1zsvGvsfNKCX4+pr3Fg/Jz73vgenjz8NL737ydx8Ubf9AUloWOmKSoK9SASES0NAyERCTKQMdG95rDdCWGBPnzaE/pdIg/Na4sc7Wv/E2/2ewGU4fH/cQpn/nBm5kUQkiIc/Kdfou7kT/HslzZAIwHg1eLkj16/q9duydIzJnsc7/37iZXHU35+/OWlb9Xjsk2GzbJVZePD0/8+Plcx495ncPzN8zjzs68s/f6JiBaAgZCIBNvwwIOh+GP8A06/bxpf+fqb0+NX2QBQdO+2iM9T0+lCg9L52/DINg3kXh36xHFqALj5Ft7q8EKevwEHv/VTPH8odO79vXcNay/Z5gfwQOhuPzr1v6GFBhqNBpqsDNgdXmgmFocsVPe18QU7ARMunJoYDs7Axk1lwLAOuonez88+jDIlYOrTTVt8syj9rWgyeuHVX8Crb4QtIhNRgmEgJKK7bPv6P+LhLACw48I/P4n9+x/D137eNt6Y9Tj+8YiwajYCiiYmGxrfxLcffwyPPf41/OKmcJD9Il78wU/wk289hse+/CSefOowvvfGeHTKePABTCxVWTbJNvy3b9073iuqfwvPPbkfjz35JB577DE8/bcv4nWjeIN59LyJ7z25H/v/7Em8+H4o6m36G/yfOwDkFaEoNA+w6V8O47HHH8OTL7w1OYdwYcqwYfPEIqKPcOypx/DYV1/EhSWnSiJKdAyERHS3jPvx/Z89j4MV03u+NDv+Bj/9389gWxQWLlT/5ffxVE3o8b1eIO9hPPsDYWg241488bf3o0wZ2ojZOD7PULPjG/jRd+8P67B2xueO4vgPDqIstP2N12Qa3xKnohxFQfHouWTg4D88i/unTPqTb3oKP/3n0Epi5cN45h/uHx/6Dj31Df/Hj/DM7jvHL8S2v/1HPDz1MVYfxPMnpqwqJyKaghtTE9GcvPbxq1rIlRpkTOwFGEVeiwl2ZMw7LOu1jF9lJRrnOflYGRpkzH1ac/DCbrLDK8+AZqY78dphsnvD8xiS+V8/IkpuDIRERERESY5DxkRERERJjoGQiIiIKMkxEBIRERElOQZCIiIioiTHQEhERESU5BgIiYiIiJIcAyERERFRkmMgJCIiIkpyDIRERERESY6BkIiIiCjJMRASERERJTkGQiIiIqIkx0BIRERElOQYCImIiIiSHAMhERERUZJjICQiIiJKcgyEREREREmOgZCIiIgoyTEQEhERESU5BkIiIiKiJMdASERERJTkGAiJiIiIkhwDIREREVGSYyAkIiIiSnIMhERERERJjoGQiIiIKMkxEBIRERElOQZCIiIioiTHQEhERESU5BgIiYiIiJIcAyERERFRkksZGxsbE4uR5Ha7xRIRJRGFQiGWlsXv98Pv94tlCoOUlBSkpaWJ5bAKBoMYGhrCyMgIXC4XUlJSEAgExMNWlFKphNfrhUqlgkajQUlJiXgIUdyLeiA0Go188yZKUnK5HLm5uWJ5WbxeL0ZGRsQyhUFWVhZUKpVYDpuenh50dnYiLy8Pubm5SE9PR2pqbA5cBYNB2O12GI1GWK1WVFVVYfXq1eJhRHGLgZCIooaBML5EMhBev34dHo8HtbW1yMzMFJtj2ujoKNrb25GZmYkNGzaIzURxKTa/ihERUcJqaWkBAOzcuTPuwiAAZGdn47777oPH40FbW5vYTBSXGAiJiChqent74fF4sHnzZrEp7txzzz2wWCy4ffu22EQUdxgIiYgoKoLBIDo7O7Fu3TqxKW7V1taiq6tLLBPFHQZCIiKKCp1OB41GE5fDxLPRaDRIS0uD0WgUm4jiCgMhERFFhclkQl5enlieRyvqfts6/mvQho9ffxn12hkWJjq70KUXi4vX+ts6hB5twXJzc2EymcQyUVxhICQioqhwuVxLWLXsh83hHw+D//UKujYdwaFqKRD0w2axweYcD4f+6+/hvS43/ADgtcFmCf0OTB7r9/vh9obu1WaDzRY6IuiH2+uH2+JG1Z8dRO3E7RYoPT0dLpdLLBPFFckLL7zwgliMJKfTiWAwKJaJKAlIJJIlBIK5BQIBfhhHiEKhgEwmE8tLNjAwgPz8/EVuTq5Hc5MNvhu/Q8eWb+KvNioA9OGtl+oxqEqF/v3XcS19G3IGr+CGpQgV/vM40WCFwncVZ973Y9MWCd77eR0GFEHcOHsC749uwJruX+FkZyrkQw14rVmB3bnNePnlS9C7xmC82gD71q0oEk9jDk6nExaLBcXFxWITUdxgDyEREUWFTCaDx+MRy/PTfgzj1q2wNfwRg0EAKMNDT9yHEvjh87phcypQUpKJzMpK6K/1IacsA5BXosB8ER93NmGo7HPYv2M3Du+rBWBC0+0yHPrCbuz8/GHsNHyCVgCKdftw+As7sZRdMr1eb8Sv6EIUaQyEREQUFWq1GhaLRSzPr+YhHNyyH0fu68Nrbw8Clot47fdG5FRvw0Pbpl9GTpqaiZLqWtRW12LH5w9iawbg84aGht1u+DA+RDxeccMVlEIKQKZQTrufxbBYLAm1UIaSEwMhERFFRUFBAYaGhsTyginu+woeMp7EK9oMSB196Gh7D69dMcBnsQGqTBga6oB7K9H5m3dw+cM61H9ig6zwAez01uPlEydx/EIvkKrBAztsqP9lPep/+Sq6au5f9JzBqQKBAHQ6HfLz88UmorjCS9cRUdTw0nXxJRKXrrt27Rqys7OxZs0asSkyvF1o+FCKfQ+UwX3pOH6b+TSe2iQetHQdHR3wer3YtCmMd0q0AthDSEREUTOxkbPBYBCbIkNeia2qZrz2+mt4y/0Q/jyMuW1wcBBDQ0OorV1OHyNRbGAPIRFFDXsI40skeggBYHh4GFevXsXmzZvjdmVuf38/Ojo6sGPHDmRnZ4vNRHGHPYRERBRVeXl52LVrF7q6utDS0oLR0VHxkJhlMpnQ1NSEgYEB7Nq1i2GQEgZ7CIkoathDGF8i1UM4VXd3N27fvg2fzweVSoXU1Njrp5jYLsdut0OlUmHVqlUoKysTDyOKawyERBQ1DITxJRqBcILb7YbL5YrZCxekpqZCpVJxv0FKWAyERBQ1DITxJZqBkIhWVuz1zRMRERFRVLGHkIiihj2Ei2Oz2WAymeB0OuF2uyGTyaBSqaBWq5GXlyceHnbsISRKHuwhJCKKQb29vejo6MDw8DCcTieCwSA8Hg/MZjN6e3tx69atpV0XmIhoBgyEREQxpru7G8PDw2J5GofDgVu3bnHEhYjCgoGQiCiGWK1WmEwmsTwjv9+P3t5esUxEtGgMhEREMWRgYEAszWl0dBQOh0MsExEtCheVEFHUcFHJ3Px+P5qbm8XyvIqLi1FSUiKWly1Si0rGxsZgNpvhdDrh9Xrh8/km9x/MyMgQDyeKKXa7HQCQkpICuVwOmUwGpVKJ7OxsSKVS8fC4wUBIRFGTqIHQbrdjcHAQDocDSqUSBQUF0Gg04mHzcjqduHnzplieV1ZWFqqrq8XyskUiELrdbnR3d4tlooSwatUqqNVqsRwXOGRMRLQMJpMJ7e3tsNlsCAaDcDgc6O7uxuDgoHjovFJSUsTSgsTq1T1mspTXhSheDA0NiaW4wUBIRLREbrcbPT09YhkIfTCMjo6K5TnJ5XKxtCDxcjk1r9fLrXIooQWDwckh5XjDQEhEtEQ9PT2Ya9ZNX18fAoGAWJ6VRCJBVlaWWJ5XTk6OWIpJnC5EycDn84mluMBASES0BCMjI/Ou7vX5fNDr9WJ5ToWFhWJpThNXLokH4Z6PSBSL0tPTxVJcYCAkIlqkQCCw4O1hdDrdonoMMjMzF7wgRSKRoLKyUizHtIKCArFElDCysrKWPPVjpTEQEhEtkk6nW/Dw59jY2F3h0efzwWazzTqfrry8fN5rFUulUtTW1sbN/MEJubm5i+4FJYoHeXl5Edn+KVq47QwRRU0ibDvj8Xhw48YNsTyvdevWIT09HUajEf39/ZNzD0tLS2cNSFarFUNDQ9MmqatUKuTl5UGj0UAikUw7Ptwise3MVF6vd845mETxIt6+mM2EgZCIoiYRAqFWq4XFYhHL81KpVCgtLUVHR4fYhKqqKmRnZ4vlSYFAAG63GwqFIuIhcKpIB0Iiih0cMiYiWiCr1bqkMIjQptNarVYsAwtYjSyRSJCenh7VMEhEyYWBkIhoAcbGxtDX1yeWF2W2DaR9Ph83bCaiFcVASES0AEajcdZFIOFgMBjm3caGiChSGAiJiOYRCASi0oPX3d3NRRZEtCIYCImI5nH79u055/iFi8fjietroRJR/GIgJCKag8vlgtFoFMsRo9PpIjo0TUQ0E247Q0RRE4/bzty6dSvqc/uysrJQXV0tlqMuktvOeDyeRV3BhWg+CoUCUqlULNMCMRASUdTEWyA0mUzo7u4Wy1FRXV2NrKwssRxVkQiEfr8fg4ODUQ/ZlBxyc3N5ecQl4pAxEdEsorGQZDZ9fX0JucCEYZAiaWRkBCaTSSzTAjAQEhHNwGKxrOhcPq/Xm3ALTLxeL8MgRdxSN49PdgyEREQzsNlsYinq9Hp9VFY3RwunC1E0cG7q0jAQEhHFqGAwCLvdLpbjVlpamlgiCrtwz3tNFgyEREQzyMnJEUsrIiUlRSzFLYlEgry8PLFMFFYajUYs0QJwlTERRU28rTK+ffs2dDqdWI4atVqNtWvXiuWoicQqYwAwm82TczRnu77zBIlEIpYoCc03dUIqlUKpVEKj0UTk72wyYCAkoqiJt0CIKRtTu91usSliFAoFsrKyEnLbGSKKTQyERBQ18RgIkxkDIVHy4BxCIiIioiTHQEhERESU5DhkTEkpEAjA4XDA4/FM/iC0LcbET3p6Oie0hxmHjOMLh4yJkgcDISUNl8sFi8UCq9W64E2HMzMzkZGRgYyMDKjVarGZFomBML4wEBIlDwZCSgp6vR5DQ0Pzbl0wl7y8PBQVFXFz3WVgIIwvDIREyYNzCCmhuVwudHZ2YmBgYFlhEACGh4fR3t4Og8EgNhEREcU1BkJKWHa7HZ2dnRgdHRWblszn86G/vx9dXV1iExERUdxiIKSEZDab0d7ePrlYJNzMZjNu3LghlomIiOISAyElnOHh4aj04Hk8HjQ3N4tlIpqHx+NBW1sbGhsbYTQaJ3+am5vxpz/9acGLvogofLiohBKK0+nEzZs3xXJE5eXloby8XCzTDLioJL5EalFJY2PjnHNxJRIJDh8+jJSUFLGJiCKEPYSUUAYGBsRSxA0PD2NwcFAsE9EsfD6fWJomEAjc3XEwZsDF3/waZxsaUX/yNC7qpjfPxHjpMjrE4l10uHj6NN5tOIfT51rgnKg2nED99elHttQdw/F3Jt5jOnD2306gcQHnMcHa1Igrxjt/9tw8i1ffbETjG3W4OAhg8CLq3jiL+tPn0OIE4GrD2ZP1aGyoQ90HOgA6vHvqVdS/WY/6y9F/r6PEJnnhhRdeEIuR5HQ6EQwGxTLRsk0MO60Eu92OrKwsyOVysYmmkEgkYe9xCgQCcLlcYpnCQKFQQCaTieVl6+rqwqpVq1BcXIz8/Py7fkwmE2pra6dvDG++gQ/1lTj4yA5sWJuLoEuGbEkvLp9rxCWtHblVqxBsu4LL7Vdx5XIPZJXVyHZZESzwoKfhGj755ApuOHOxviRj6qkALjuC+duwfXMtAtc/gnV9LfIHG/GhXgZlxlpUFN45VH+rG5YUF7LXVkJ962M0mVORvmY9CvSXcb7xEpq6ncitWoXRG4249KfrsOVI0dswcX45uH35fdy0ZKF6jQYyAFa7DGt3b8N69SA+0WZC0qeF+rEv4EFNL/50IxPrcwHZ2vuwbX0OBj9pR2aFC336MmzaUI1tG0sgZQcqhRF7CCkhBAKBOYegomGlH58onlRVVcHpdKKyshJ2ux3V1dWwWq2oqamBRCK5e7hYcx8O1Bjw9q9P4HjdFVjT0tD2zlVgzyM4sN6KS+/r4DQOAGsP4YndQHcn4DQaYYIJveYcPPoXj6PU3I67OvSURagoSYPz1ll05u7ChmAPGltzsGdTungkgDRUFXjQ3g90DCpQUQIAAThSS3H/owfwiMaEdgNg6jah+IuHkPbR1POzoiBHg9INVZj4SqRZUwFNUIfLH3pQtTMfbo9//FM5XwN1MADkVKAiB9BdugRP9S7ke9ORniFFuqwHb9ZdhnX6yREtCwMhJQSDwQC32y2Wo8pkMsFq5Vs00UJVVVVBLpdj7dq1kMlkk2FwRoPX0Ca5H4eeOoKnv1SEtg/a4E8NwNHfiU6LGqVFcgAa5BQBSFNAMeWm6pwCAGlIm6Wz0/RxPc6NbMHjDxYBHW3QDl5H3bl2tH/8LjqFY9M25sNzqxH9qeVYDQBwoKfpIi61DMA8MRKu1qAgFTOcn8DZiXd/dxXqRx7FFhUglUjH6yNWOFMlAJzofKcOV7MfwaObVUBQhfINNcgv3Y3aNNPd4ZZoGRgIKSGYTCaxtCKGh4fFEhEJJtYyXrlyBU6nEx9++CHcbjcuXbo0Ob/wrvWOxavg+fhV1L1Zj7o3O5GzrgrV5ekwDfnh6OuAcWymHr2ZGHH5rcuYnFzS/y7qrlqBkWs4++ZlDKx7FE8f+Qq+cqAWtTsfQdX0GwPKLcgf1QJVFZOlACRQyKzQ9vfCar5zqHh+Rblp6LnWFurZ8+DamXPo8QfQ2VCPd1ut2LBOjva3rqDxkgn5m/PhuXoG5/r9CHzaiPp32mBNs6Kt4V1c+eAsOnO2o+bOQxEtG1cZU9xbiZXFs0lJScGWLVsglYa+6dM0XGUcXyK1yvidd95BVVUVMjKE+XwhH3zwAQ4dOjR7b+GyeNDR3IvyrTXgRSiJ7mAgpLin1+tXZHXxbMrKypCfny+WiYEw7kQqEBoMBrS1tYnlSaWlpaiurhbLRBRBDIQU9zo6OmJqI9vMzEzU1HAwZyYMhPElUoGQiGIP5xDSNMFgEC6XC263O262B4rU5emWil94oi81NZU/EfghouTBHkKCx+PByMgIRkdH4Xa7Jydzp6SkQKlUIisrC7m5uUhLi70ZN2NjY7h69apYXlFyuRybN28WyxShHkIiIlo+fgVMYmNjY+jr60NrayuGhobgcrmmrewbGxuD0+nE0NAQWltb0dfXd/fKvxXm9XrF0ooLBAJiiYiIKKYxECYpn8+Hzs5OGI3GBYW8sbExGI1GaLXamOrhne8SWCshXobaiYiIJjAQJiGv14uuri5YLBaxaV5WqxVarTZm5u0plUqxtOIis1UGERFR5DAQJqGenh7Y7XaxvGAOhwO9vb1ieUVIJJKYC2Cxdj5ERETzYSBMMjqdLixbtNhsNuh0sXHhpFjrJeSm1EREFG8YCJOIw+HA0NCQWF6yoaEhOBwOsRx1mZmZYmlFcd82IiKKNwyESWRoaCisCx6CwWBYA+ZSxVogzMnJEUtEREQxjYEwSYyMjCxpEcl8LBYLTCaTWI6qjIwMyOVysbwilEplzAVUIiKi+TAQJoFAIBDR+X4Gg2FBW9dESkpKCrKyssTyisjOzhZLREREMY+BMAnodDq43W6xHDYOhwMGg0EsR1VBQcGKr+5VKBQoLCwUy0RERDGPgTDBOZ1O6PV6sRx2er1+RTeJVigUyM/PF8tRlZ+fv+KhlIiIaCkYCBOcTqeLynCuz+eLSvCcS0FBwYrNJVSpVCseSImIiJYqZSwaaWEKo9EYU5c+S2RmsxldXV1iOWJSUlJQW1uL9PR0sSlqhoeHV2TT7HXr1q3o844Xcrkcubm5YnlZnE7nivw/T1YZGRliieLMci5MQIuTnp6OsrIysRyTGAgT1NjYGG7dugWn0yk2RZRGo8GaNWvEclT19vZieHhYLEdMTU0NVxYvUCQCIRERLR+HjBOUTqeLehgEAJPJFJHtbRajvLw8ansBFhcXMwwSEVHcYyBMQC6Xa0Xn80Vr3uJcKisrUVxcLJbDqri4GCUlJWKZiIgo7jAQJiC9Xo9AICCWo8Zuty9qGxq/3w+n0wmXyxXW6QQlJSURC4WrV69mGCQiooTBOYQJZnR0FJ2dnWI56qRSKWpra6FQKMSmSSMjIzCZTLBardPqarUaGo0mbHPNrFYrDAZDWIayc3NzkZ+fzwUkS8Q5hEREsYmBMMHcunULDodDLK+I3NxcVFRUiGUAQFdXF8xms1ieJicnB5WVlWJ5yYaHh2E2m+8KoPNJTU1FZmYmCgoKoFarxWZaBAZCIqLYxECYQPR6PQYGBsTyiqqsrLxrgcdCwuCEcIdCAHC73ZM9kx6P566/j1KpFGlpacjIyIBarUZ6ejo3nA4TBkIiotjEQJggPB4Pbt26FXOvbUZGBqqrqycD1eDgIIaGhsTD5lRQUIDVq1eL5bAJBALwer1AKLAw/EUOAyERUWziopIEodPpYi4MIrTAZGLFs8ViWXQYBACDwRDRfQUlEgmUSiWUSiXDIBERJSUGwgRgtVojGpiWy2g0Qq/XQ6vVik0LNjAwsCL7KhIRESUDBsIEoNPpxFJM8fv9y57bGAgEYv55EhERxSsGwjhnNBphs9nEckIym80YGRkRy0RERLRMDIRxzOfzJV2v2dDQ0OQCECIiIgoPrjKOY319fTAajWI54eXl5aG8vFwsUxzgKmOajcVigcvlQjAYFJtiQmpqKtLT03ntckpYDIRxymazoaOjQywnjTVr1kCj0YhlinGRCIRerzcsV6Ghu6Wnp0OlUonlsPH5fOjq6sLt27ehUCigUqmQmhqbA1fBYBAOhwM+nw+lpaWorKyM2XMlWgoGwjil1WqT+kNQoVBg3bp13CYmzkQqEHJuaWRkZWVFLBAaDAa0traiuLgYZWVlEXuccLPZbOjr64PJZMLGjRv5xZQSBr/exKHh4eGkDoMIXW0k2eZPEiWKoaEhXL9+HZs3b8a6deviJgwCQGZmJjZu3Ii1a9fio48+SsppO5SYGAjjjN/vZxAK0el0i74uMRGtLKvVipaWFmzfvh15eXlic9woKirCjh07cP36dbhcLrGZKO4wEMYZnU4Hj8cjlpPWUq58QkQrp6OjAxs2bLjrGufxKD8/H+Xl5fj000/FJqK4w0AYR+x2OwwGg1hOana7naGQKE6YzWa43e6IXps82qqqqjAyMgKHwyE2EcUVBsI4otfrEeU1QHFhaGgIdrtdLBNRjDEajSgqKhLL82hF3W9bx38N2vDx6y+jXjvDwkRnF7rGL5u+LK2/rUPo0RassLAwpi8fSrQQDIRxwmQyYXR0VCwTgLGxMej1YfgkIKKIstlsyMrKEsvz8MPm8I+Hwf96BV2bjuBQtRQI+mGz2GBzjodD//X38F6XG34A8Npgs4R+ByaP9fv9cIf2tffbbLDZQkcE/XB7/XBb3Kj6s4OonbjdAmVlZSXNFaMocUleeOGFF8RiJDmdzpjdeDRWBQIB9Pb2crueObjdbshkMqSnp4tNFEMkEknYV5QGAgFO6o8QhUIBmUwmlpesr68PhYWFUCgUYtMc9GhussF343fo2PJN/NVGBYA+vPVSPQZVqdC//zqupW9DzuAV3LAUocJ/HicarFD4ruLM+35s2iLBez+vw4AiiBtnT+D90Q1Y0/0rnOxMhXyoAa81K7A7txkvv3wJetcYjFcbYN+6FYvpx3S73TCbzSguLhabiOIGewjjgF6v5wfeAuh0Ol7WjiiGSSSSpXUIaD+GcetW2Br+iMEgAJThoSfuQwn88HndsDkVKCnJRGZlJfTX+pBTlgHIK1FgvoiPO5swVPY57N+xG4f31QIwoel2GQ59YTd2fv4wdho+QSsAxbp9OPyFnVjKLpnBYJB7olLcYyCMcS6Xi8OhC+T1erklD1EMU6lUSxtarXkIB7fsx5H7+vDa24OA5SJe+70ROdXb8NC2kmmHSlMzUVJdi9rqWuz4/EFszQB83tDoitsNH8aHiMcrbriCUkgByBTKafezGHa7Pew930TRxkAY43Q63dK+UScpo9HIvQmJYpRGo1nW4gvFfV/BQ8aTeEWbAamjDx1t7+G1Kwb4LDZAlQlDQx1wbyU6f/MOLn9Yh/pPbJAVPoCd3nq8fOIkjl/oBVI1eGCHDfW/rEf9L19FV839i54zKBoeHuYVSyju8dJ1McxsNqOrq0ss0zzUajXWrl0rlikG8NJ18SUSl65rbGzEli1borcPobcLDR9Kse+BMrgvHcdvM5/GU5vEg5bOYDBAq9XiM5/5jNhEFFfYQxijuHJ26axWK187ohhVVVWF9vb26G2hJa/EVlUzXnv9Nbzlfgh/HsYw6PP50N7ejurqarGJKO6whzBG6fV6DAwMiGVaIJlMhtraWqSlpYlNtILYQxhfItFDCAA3b96Ey+XCPffcg5SUFLE5Lvh8PjQ1NSE7O5sjEpQQ2EMYg9xuN6++sUw+n4+9hEQxav369VAqlbh06VJchnmDwYDLly8zDFJCYQ9hDOrt7V3WxGu6o7q6egkb4VKksIcwvkSqh3DC4OAgOjs7kZaWhry8PKhUKqSmxmY/RTAYhMPhgNFoRDAYRFVVFQoLC8XDiOIWA2GMcbvdaGtri978mgSXmZmJmpoasUwrhIEwvkQ6EE4wGo0wm81wOBwx+d6XmpqKlJQUKJVK5Obmhv3vMFEsYCCMMbdv3+ZeemFWWlrKb/IxgoEwvkQrEBLRyovNvvkk5fV6OVQcATqdDh6PRywTERFRCANhDLHZxi++TuHl9/vZ60pxye/3Y2RkBAMDA9Bqtejt7YXBYOAXHCIKOwbCGOJ2u8UShcnw8DBGR0fFMlHMMplMuHHjBnp6eqDX62GxWDA8PIz+/n7cuHEDt2/fFm9CRLRkDIQxxG63iyUKI5PJJJaIYpJer0d3dzcCgYDYNEmn06G9vV0sExEtCQNhDGEgjKyJVYxEscztdi94U3q73Y7BwUGxTES0aAyEMUQqlYolCjOz2SyWiGLKQsPghKGhIc4pJKJl47YzMaStrQ0ul0ssUxhxX8KVxW1n5jY2NoZr164tei++VatWoaioSCwvWyS3nRkbG4PL5Vr0cyWKRUqlMmY3VV8oBsIY0tHRAZvNJpYpjCQSCbZt2yaWKUoSORDa7XbY7XYolcolXx3H5XKhra1NLM8rJycHlZWVYnnZIhUIDQZDTPw/Iwqn7OxsFBYWxm0wjM+zTlB5eXliicJsrkn6REsRCATQ0dGB9vZ23L59G1qtFjdu3FjSMO5S/376fD6xFLMYBilRjY6OxvXqfwbCGJKVlQWJRCKWiSiGabXau3r2PR4POjo6Fh3wZDKZWFqQeJl/PDY2xjBICc1ut8ftFnIMhDFEIpEgPz9fLFMYRWL4i5KXXq+fdXcAr9eLvr4+sTyntLS0JYXCjIwMsRSTnE6nWCJKOPG6FoCBMMasWrWKQ8cRxMBN4eLz+ebd8sVkMs0aGGezlH//Go1GLMUkuVwulogSTrz+PWcgjEHl5eVL+lCguWk0Gr6uFDb9/f0IBoNi+S79/f1iaU6FhYWL6iUsKSlZ1PErSSaTQalUimWihCGVSpGeni6W4wIDYYwqLy9HTU0NsrOzxSZagqysLJSWloploiWx2WwL3tPS6XQu6io5EokEFRUVC1qpmJeXh+LiYrEc00pKSuK2B4VoLqmpqXH373EqbjsTB5xOJ2w2GywWy12T12l2UqkUWVlZyMnJWfI2IBReibLtzGL3DJXJZNi4cSMkEgkCgQBu374Nt9uNtLQ0lJaWzriYzOPxoLu7e8ar68hkMhQWFqKwsFBsCqtIbTsDAFarFU6nEz6fDx6PJ257VSh52e12yOVyyOXyye2mUlJSxMPiBgNhHPJ6vdN+FjJslSxkMhmkUimkUikyMzPFZlphiRAIjUbjoheLAEBubi5Wr16NmzdvTtuSRi6XY8OGDTOGQoSC09RQqFQqozZyEMlASESxhYGQiKIm3gNhIBDAjRs3lvwelpmZOWMvf15eHsrLy8XyimMgJEoe809SISIiAMDt27eXHAYRmns4k+Hh4VnbiIiigYGQiGgBXC4XjEajWA6b3t5esUREFDUMhEREC7CUeYOL4fF4MDAwIJaJiKKCgZCIaB6jo6OL3mB6KQwGw6JWLxMRhQsDIRHRHILBYNR67sbGxtDd3S2WiYgijoGQiGgOQ0ND07aJiTSXywWDwSCWiYgiitvOEFHUxNu2My6XCzdv3kSU3yYhkUiwefPmWfcmjJZIbTtjtVphsVjg8Xjg9/tnfX15RROayuv1iiUgdIUQmUwGhUKB3NxcpKWliYfQAjAQElHUxFsg7OjoWLHtYPLz81FWViaWoyoSgXB4eDiiq7UpuaWkpKCiogIKhUJsonlwyJiIaAYTl4xcKUajccbL1sWzYDCI4eFhsUwUNmNjYxH7gpjoGAiJiGZgsVjEUtRFequbaHO73bMODxOFS6J9kYoWBkIiohn4fD6xFHVOpzOhtqGRSqViiSjs+PdsaRgIiYhmkJmZKZZWRDRXOEeaXC4P+5xEIlFWVpZYogVgICQimkFOTg4yMjLEctQlWoAqLi6GUqkUy0RhkZOTE/aFa8mCq4yJKGribZXxxCIIo9EIt9stNkeUSqXC6tWrVzSURmKV8QSXyzXrNiJES6FSqSCTycQyLRADIRFFTbwFwql8Ph+8Xi+CwaDYFHYqlWrF9yBEhAMhEcUWBkIiipp4DoTJiIGQKHlwDiERERFRkmMgJCIiIkpyDIRERERESY6BkIiIiCjJMRASERERJTkGQiIiIqIkx0BIRERElOQYCImIKOqsVisGBgam1cxmM4aGhqbViCg6uDE1EUUNN6aOL5HamFqr1aKzsxMejwdqtXqy7na74ff7UVhYiF27dk27DRFFFnsIiYgoqnp6emC1WuHxeGA0Gid/bDYbXC4Xenp62HFAFGUMhEREFHPuGrwaM+Dib36Nsw2NqD95Ghd105tnYrx0GR1i8S46XDx9Gu82nMPpcy1wTlQbTqD++vQjW+qO4fg7E8PcHTj7byfQuIDzmGBtasQV450/e26exatvNqLxjTpcHAQweBF1b5xF/elzaHECcLXh7Ml6NDbUoe4DHQAd3j31KurfrEf95enD7UTLJXnhhRdeEIuR5HQ6o3JxeCKKPRKJJOxDkIFAAC6XSyxTGCgUCshkMrG8bF1dXXjwwQdRUVGBe+65ByUlJdi+fTuKi4uxfft2dHZ2oqamBqmpU/oszDfwob4SBx/ZgQ1rcxF0yZAt6cXlc424pLUjt2oVgm1XcLn9Kq5c7oGsshrZLiuCBR70NFzDJ59cwQ1nLtaXZEw9FcBlRzB/G7ZvrkXg+kewrq9F/mAjPtTLoMxYi4rCO4fqb3XDkuJC9tpKqG99jCZzKtLXrEeB/jLON15CU7cTuVWrMHqjEZf+dB22HCl6GybOLwe3L7+Pm5YsVK/RQAbAapdh7e5tWK8exCfaTEj6tFA/9gU8qOnFn25kYn0uIFt7H7atz8HgJ+3IrHChT1+GTRuqsW1jCaQpU58I0fKwh5CIiFZEZ2cnvF4vPv30U/h8PnR0dCAQCIiHjdPchwM1Brz96xM4XncF1rQ0tL1zFdjzCA6st+LS+zo4jQPA2kN4YjfQ3Qk4jUaYYEKvOQeP/sXjKDW3464OPWURKkrS4Lx1Fp25u7Ah2IPG1hzs2ZQuHgkgDVUFHrT3Ax2DClSUAEAAjtRS3P/oATyiMaHdAJi6TSj+4iGkfTT1/KwoyNGgdEMVJr4SadZUQBPU4fKHHlTtzIfb4x//VM7XQB0MADkVqMgBdJcuwVO9C/nedKRnSJEu68GbdZdhnX5yRMvCQEhERFE1MRys0WggkUig0WiQmpqK3NxcpKSMd3vdNWQ8eA1tkvtx6KkjePpLRWj7oA3+1AAc/Z3otKhRWiQHoEFOEYA0BRRTbqrOKQCQhrRZOjtNH9fj3MgWPP5gEdDRBu3gddSda0f7x++iUzg2bWM+PLca0Z9ajtUAAAd6mi7iUssAzL7QQWoNClIxw/kJnJ1493dXoX7kUWxRAVKJdLw+YoUzVQLAic536nA1+xE8ulkFBFUo31CD/NLdqE0z3R1uiZaBgZCIiGJf8Sp4Pn4VdW/Wo+7NTuSsq0J1eTpMQ344+jpgHJupR28mRlx+6zImp/L1v4u6q1Zg5BrOvnkZA+sexdNHvoKvHKhF7c5HUDX9xoByC/JHtUBVxWQpAAkUMiu0/b2wmu8cKp5fUW4aeq61hXr2PLh25hx6/AF0NtTj3VYrNqyTo/2tK2i8ZEL+5nx4rp7BuX4/Ap82ov6dNljTrGhreBdXPjiLzpztqLnzUETLxm1niChquO1MfInUtjMffvghbDYbpNJQj5jA7XbjwIEDk72F4eVBR3MvyrfWIE1sIkpiDIREFDUMhPElUoFwbGwMw8PDYnlSdnZ2RBazENHsGAiJKGoYCONLpAIhEcUeBkIiippIBEKfz8f3lAhSKpViiYgSEAMhEUVNJAIhEREtH1cZExERESU5BkIiIiKiJMdASERERJTkGAiJiIiIkhwDIREREVGSYyAkIiIiSnIMhERERERJjoGQiIiIKMkxEBIRERElOQZCIiIioiTHQEhERESU5HgtYyKKmkhcy9jpdKK3t1csT8rLyxNLRERhNTw8LJYAAOnp6SgrKxPLMYmBkIiiJhKBMBAIIBAIiGUiopggl8vFUkxiICSiqIlEICQiouXjHEIiIiKiJMdASERERJTkoj5kHAwGxRIRJZHUVH4PJSKKNVEPhEREREQUW/hVnYiIiCjJMRASERERJTkGQiIiIqIkx0BIRERElOQYCImIiIiSHAMhERERUZJjICQiIiJKcgyEREREREkupjamdjgccLvdYjlpjI6OIi8vD+np6ZBKpWIzEc3A5/PB6/WKZQqD1NRUKJVKsRxWDocDQ0NDMJlMcDqdUKlUsNvt4mErSqPRwGKxID09HRqNBiUlJVAoFOJhRHFtxQOhw+FAb28vdDodpFJpxN98YpnVaoVKpYLNZoNGo0FpaSmKiorEw4hoCq/Xi5GREbFMYZCVlQWVSiWWw+bWrVsYGBjA6tWrJ78Mx+qlDYPBIGw2G4xGIwYGBlBZWYnq6mrxMKK4taKBsKenBx0dHaisrMSqVauSOgxONTY2Br1ej56eHqSlpWHjxo2Qy+XiYUTEQBhRkQqEfr8f165dg0KhwLp16yCTycRDYprb7cbNmzcBAPfcc4/YTBSXViwQ3rp1CxaLBZs2bUJ6errYTCGffvopDAYDtm/fzsBMNAMGwsiJVCD8+OOPkZmZidraWrEprrS2tsLv92Pr1q1iE1HcWZG++e7ublgsFuzatYthcB5r165FSUkJmpubxSYiorij1Wohk8niPgwCwMaNG+Hz+dDb2ys2EcWdqAdCm80GrVaLzZs3x+xckVizZs0apKeno6OjQ2wiIoobPp8PXV1dqKmpEZviVk1NDbq6usQyUdyJeiLr6+tDVVVVRIYhEtnatWvR09MDn88nNhERxQWdTofi4uKEmv6iVquhVquh1+vFJqK4EvVAODg4iNLSUrEcHi2v4MdvGyf/aHz7x3jul3MMteqNuHN0ODTjlZ+cD/N9jlMoFCgqKuKbDhHFLbPZDI1GI5bn0Yq637aO/xq04ePXX0a91i8eBDi70BWGt8fW39Yh9GgLlpubC7PZLJaJ4kpUA6HVakV6enp0Vsy2vIITOIKjX5ttsm8zXnm1SSwu01b89bP7kS+WwyQnJwcWi0UsExHFBbfbvYTRIT9sDv94GPyvV9C16QgOVUuBoB82iw0253g49F9/D+91ueEHAK8NNkvod2DyWL/fD3doy0q/zQabLXRE0A+31w+3xY2qPzuIxc5uVCqVSb2HLiUGyQsvvPCCWIwUi8UCl8uF4uJisSk89M34k30tPpPxJ/z4T1X47p9XhhqMOP+T/47//P0FXLhwAdcCW7C287c4c/MWLg/m4ZGterzy3DG8duECLjQHsWVPFdLRHKpdw+3BP6E55TPYWjjlfqYe95Nf4fzvz0Cbn4fmV6+jZE8VIrFUxufzYWRkBCUlJWITUdIKBAJwuVximcJAoVCEdUuYgYEB5OXlLXJTZz2am2zw3fgdOrZ8E3+1UQGgD2+9VI9BVSr077+Oa+nbkDN4BTcsRajwn8eJBisUvqs4874fm7ZI8N7P6zCgCOLG2RN4f3QD1nT/Cic7UyEfasBrzQrszm3Gyy9fgt41BuPVBti3bsVidoB1Op2wWq2R+2wjioKo9hBGZ4ebJrzyrw1A4fTQtO0rR3H06FEc/ft9gH4Q+Z/fj9rcffjO17bC+PZ54MlQ++eGcOJt45TaERQbx4cCjG+fQPOm7+Do0aP4zqZmnJgYnh4pwP6jR/HXW6Y9ZNilpKRE6TUkIgq/tLS0pfWkaT+GcetW2Br+iMEgAJThoSfuQwn88HndsDkVKCnJRGZlJfTX+pBTlgHIK1FgvoiPO5swVPY57N+xG4f31QIwoel2GQ59YTd2fv4wdho+QSsAxbp9OPyFncgVH3sB3G430tLSxDJRXIlqIJTL5fB4PGI5rMyNQ9h69DvYeuMEzk/OJ8kHmn+M5557Ds/9awPEmR6DejPaTz033n6qHWb9IAb1QHHh+G23bcoJHQds3To+IJy/dSugHxy/g9xiRKPPjm86RBTPsrKyljbXruYhHNyyH0fu68Nrbw8Clot47fdG5FRvw0Pbpr/7SlMzUVJdi9rqWuz4/EFszQB83tDQsNsNH8aHiMcrbriCUkgByBRLX+gyOjoKtVotloniSlQDoVqthsViQTAYFJvCJmfvQWxFPvY/ux9D//oKmjFlPuHRozj65N2zQ0oKc1A70UN49CiOfm0rSgqBoVCgHNSPv4GVFALNzeO9gsbm5rt6ISONbzpEFM8KCgowNDS05M8AxX1fwUPGk3hFmwGpow8dbe/htSsG+Cw2QJUJQ0MdcG8lOn/zDi5/WIf6T2yQFT6And56vHziJI5f6AVSNXhghw31v6xH/S9fRVfN/YueMziVx+PB4OAgCgoKxCaiuBL1K5U0NTUhLy8vMiuNW17Bj3UH8d3Ph5Z1tLyC594pxneeLcBbz72GdgBYV4taYzEOPrsNTT/5X2jI/0sc/RrwykQ7gJy938F3Pz84WcvJzUHB576Lv95ixPmf/C80jADI3YfvPLsf+WjGKz8x4OBdv4dXMBjEe++9h8985jMJtWUD0XLxSiWRE4krldy4cSO6G1N7u9DwoRT7HiiD+9Jx/DbzaTy1STxo6VpbWyGVSqP3fIgiJOqBcGRkBK2trbj//vtjemNq49s/xltF38VfbwGaf/kcmrdGfo7gXDo6OuD1erFpUxjfyYgSAANh5EQiEPp8Ply+fHnyGvbRYP6kHue7XZDl7sTBhyqxmCUtc+nt7cXt27fxmc98RmwiijtRD4QIXcfY6/Viy5YVTFjzar7TazjZG7gydDod2tvbsWfPnuhs2UMURxgIIycSgRChLciuXr2KiooKVFRUiM1xQavVQqfTYfv27RF5jYiibUUCIQBcu3YNEokkxkPhyhscHERrayt27NixhA1diRIfA2HkRCoQIrRVS1tbG4LBIFavXo38/HxIpVLxsJji8/lgNBrR29sLpVKJ9evXc6EfJYwVC4QIzb0wm82oqqri/k0Cu92Onp4ejI6OYtOmTcjOzhYPISIGwoiKZCCcMDQ0hMHBQZhMJshkMqhUqqVtTRNBarUao6Oj8Pv9yM3NxapVq7iIhBLOigZCADAYDOjp6YHT6UR2djYUCgVSUlLEw5KC2WxGRkYGbDYb3G43Vq9ejaqqqqR9PYgWgoEwcqIRCKdyuVwxu9eqRCJhbyAltBUPhBNcLhdGR0fh8Xhi9g0h0kZGRlBUVISMjAz2CBItEANh5EQ7EBLRyomZQEhEtBTJEAgDgQDcbjfkcnlYLyU3HwZCouTBQEhEcS2RA+HE3LqpV3iSSqVQq9UoLS2NeDhkICRKHgyERBTXEjEQejwedHZ2wuVyiU2TJBIJKioqIjq9hIGQKHnE7s7QRERJaGxsbN4wiNAwcldX17zHEREtBAMhEVEMMRgMCw55Y2Nj6O7uTtqFeEQUPgyEREQxRK/Xi6U5uVwuWCwWsUxEtCgrMofQ7/fDZDLB4XDA7/fD7/eLh8yIe0ARxYapixzmIpPJIJVKoVKpkJeXF5HrlyfSHEKPx4MbN26I5Xnl5+ejrKxMLC9bpOYQer1emM1mOJ1OeL1eBINB8RCA7/kUQ2Z7z0tJSYFcLodKpUJWVhaUSqV4SNyIeiD0+/3o7e2F1+sVm4gogaWlpaGioiLsoTAWAqHdbsfg4CAcDgeUSiUKCgqWdKlJh8OBW7duieV5qdVqrF27ViwvWyQCod1uR39/v1gmSgiFhYVL+rcfC8L7zrwAJpOJYZAoCXk8HphMJrEc90wmE9rb22Gz2RAMBuFwONDd3Y3BwUHx0HktNSxH+Xv9sgwNDYklooSh1+vj6t/jVEt791kGh8MhlogoSTidTrEU12w2G7q7u8UyEAo+BoNBLM9JLpeLpQWJl6FVj8ez4ClCRPHKZrOJpbgQ9UAolUrFEhEliUT69x8MBmcNgxP6+/sXNSIikUiQlZUllueVk5MjlmLSbHMFiRJJvP49j3ogVKvVYomIkkRmZqZYils6nQ4+n08s3+X27dtiaU6FhYViaU4qlSpu3lfjecI90UKlp6eLpbgQ9UCYlZWF3NxcsUxECS4vLy9hAqHH41nwXLiJHRUWKjMzc8GT0iUSCSorK8VyTCsuLhZLRAkjNzc34peUjJSorzKe4PV64XK54nbyJREtTGpqKpRKZcTeJFdilXFnZydGR0fF8qzS09Oxbt26yT/7fD643W7I5fIZ5/8Fg0H09/djeHhYbJoklUpRU1MT0V63SKwyRmiOlV6vX1APK1E8kEqlyMvLi5vpGzNZsUBIRBQO0Q6ENpsNHR0dYnleFRUVyM3NhdFoRH9//+SX4dLS0lmHia1WK4aGhmC32ydrE3s6ajQaSCSSaceHW6QC4YR4nWtFJFrqDgGxhIGQiOJatANhW1vbgi8tN5VMJkN5eTm0Wq3YhKqqKmRnZ4vlFRfpQEhEsSP+Iy0RUZQYjcYlhUGEholnCoMA0NfXh0AgIJaJiKKGgZCIaAECgcCiVwwvlM/nW9JG1kRE4cJASES0AIODgxHtxTMYDItajUxEFE4MhERE83C73Yu+6shSdHd3c+cFIloRDIRERPPo6+sTSxGxmP0NiYjCiYGQiGgOZrM5qtcm1el08Hg8YpmIKKJWbNsZr9cLp9PJfagICO3hpFAooFAoxCaiOUVy25mxsTFcv3496hsoZ2Vlobq6WixHXSS3nXE4HAy+FDb8DFm+FQmEer0eJpNJLBNBrVZj1apVYploVpEMhIODgys2hFtdXY2srCyxHFWRCIQejwe3b99mGKSI4GfI0kV9yHh0dJRhkGZltVqjMnmfaD7BYHBF/y729fUl5AKToaEhhkGKGKvVOuclH2l2UQ+EVqtVLBFNE835WkSzMZvNEd1mZj5er3fFeicjxe12L3ljb6KFYs5YmqgHwpV8g6X44Pf7xRJR1DmdTrEUdTqdLqHeMzlnnKKBnyFLE/VAmJGRIZaIpklPTxdLRFEnlUrFUtSNjY0l1GbVSqUSqalR/9ihJMPPkKWJ+r/MnJwcyOVysUwEhFaK5eXliWWiqNNoNGKJliklJQX5+flimShsJBIJP0OWaEVWGQeDQYyMjMDhcCAQCMDn802bPK1UKqcdT4lFnEMkk8kglUqhVCqRnZ2NtLS0ae1Ec4nkKmOz2Yz+/v6obzszQa1WY+3atWI5aiKxyhgA7HY7LBYLvF4vfD7fXcPi/Ayg2YifH5jyGaJSqZCTkwOZTCYeQguwIoGQiChcIhkIJ5hMpqivjFWpVAm57QwRxSYGQiKKa9EIhMmKgZAoeUR9DiERERERxRYGQiIiIqIkx0BIRERElOQYCImIiIiS3IoFQpPJdNdWDm63GxaLZVqNiIiIiCJrxQLhhx9+eFf4GxoawvXr16fViIiIiCiyor7tjE6nwx//+EexPE1qaioOHDjAy9wR0by47UzkcNsZouQR9UDY1taG1tZWsXyX3bt3Y/Xq1WJ5nK4RJ063wAoAUGPLE0ewt0g8aA7X63BiZA+O7Fv4jVrqjqFxADM8ng6NJ84BB4RzuF6HYw3Wace21B1Do3ULnjiyFwt/5Ol0Oh2KiqbeugV1xxoxfmoT961D44nTaLFOrc38HHQNJ3D6euiV3PzEol4ToljAQBg5kQyEHo8HHo8HarV6suZ2u+H3+9kZQLQCVmzIeOl0aDzXg4onnsEzzzyDZ56oQM+lFvGguW0+vLjgo2vENeyd8fF0DefGg9cM1Gqg55Yu9KcWdFrVuPPWtwTX63Du1vSSruEasG/8tXiivAeXrgO4fgkt6vHz3atuGa/N8hwMZjX2PjN++0W9JkRES+TxeNDZ2Ylr167BaDRO/rS3t6OlpQU2m028CRFFWNR7CFtbWzE6OoqamhqxaVJTUxPWrVs3aw9hS90xdFY/g8ObhYapPYele/HM4S3TesAme8smeghzL+FYw0DoxqXY+8xhbJlydzPSNeLEpRwcObxl/PdzQIW6B9hzdw/hiREN1L3AnsnHvPNnw2Rv3dRzrcO53gFYsQVPHADOTXsuBZO9fqX7ZnjuGO/tu5R7BHtGxv97ePMsvaGTz+HOfd7d80kUH9hDGDmR6iFsbGyEwWAQy5MkEgm+9KUvITU1DvssiOLUivxrUygUSElJQX9/PzIzM3Hz5k3k5+ejvb0d6enp816YesvhZ1ClPYZjx47h2LETaAx1wrVcutNz+ETONdSF1qeoNz8R6i3rQftEh92E0vFesyc2W9E573qWUO/kni13fj+wFzniYZNyoIEJBgAtWisq1k0cqUPBnlAP5zN7UWo1Y/y0rED5E3jmyF4Y7nouRdi7vRTqzU/MGAaha8S53grsmaltmqnPwQCTtXS8h/CJCvScawydBxFR5Ig7TIgCgQACgcD04pgBF3/za5xtaET9ydO4uIA3K+Oly+gQi3fR4eLp03i34RxOn2uBc6LacAL1wmdCS90xHH9n4pt8B87+253Pn4WwNjXiivHOnz03z+LVNxvR+EYdLg4CGLyIujfOov70ObQ4AbjacPZkPRob6lD3gQ6ADu+eehX1b9aj/vLEeRCFx4oEQgDIzMzEmjVrIJPJsH79egDAunXrkJaWJh46oy2HJwLVPTCdrkMLdDBbrWg5PR4UT1+3wjoy/i9VnTt7t5c6p0AszaIFdcemzBXUtaMn9HiNA1a0zBimClBbbkXn9RZ0WitQO3kaRSgy1oUCbWj+X8j4uc7+XGZ0vQ7jpzbf3EThOWALDk/0ihblLG84m4hoEXbu3Il9+/bN+COTyZCSkjL9BuZuDCm345EH9+LQ4QdQGvQAzk5c/n0dTp+9Al0QsLZeQeMf63H61Dl0OIE0tRoqDKCloRFnf3MadR/P8D7qAko/+zge2XcAtc5e9ADAYCNa/fkzvCfmI93bPv6efasbjuzxI5ydl3G27vTkeQxcb8S5unpc0009Pyd6urXouN45GTodig04+Phe7L1XDaPWiI4mM6oefxSHPitF58dGwK3ChoOHsHffHqgN7TC6+uHJvgebN+/C5+8tnXpiRMu2YoHQ6/VidHQUwWAQw8PDAIDh4WH4/X7xUEEL6o7V4c4svgJo1ABQhBy1Glsm5haGdU6cDo0nOlH1zJQh1aK9OBJ6nL2lamw5MHMYK1pXAWtDI6zltXfadY04oa0KzefbMsObziKey8R9TQmDRblqDGjHX6EW7cBkyLzrOegaceJEKMjqzLCqc2Z8DkRE4abRaNDT04OMjAx0dXVBrVZDq9UiOzv77jAIAJr7cKDGgLd/fQLH667AmpaGtneuAnsewYH1Vlx6XwencQBYewhP7Aa6OwGn0QgTTOg15+DRv3gcpeb2u7+4K4tQUZIG562z6MzdhQ3BHjS25mDPpnTxSABpqCrwoL0f6BhUoKIEAAJwpJbi/kcP4BGNCe0GwNRtQvEXDyHto6nnZ0VBjgalG6owMQivWVMBTVCHyx96ULUzH26Pf/xTOV8DdTAA5FSgIgfQXboET/Uu5HvTkZ4hRbqsB2/WXQ4trCQKjxULhEu3BYf3AY3HJoaMT8O0fbyXa8ueCvSEetWOHTs2OWS8KLpGnKgTFqlcv4QW68Cdx5wIUQtRVIsKtdBLWVSLCmvj+H2dM0EdGlaeasbnkq8Brp+e9rxaLrXAOhC6r2PHcKJBB2zegy2h+2/E3tBcwhmeQ9FeHCjvweljx3DstAn3HJ53BiUR0bKNjY1hbGwMu3btglKpxH333Ye0tDTs2bNncsrQXdPbB6+hTXI/Dj11BE9/qQhtH7TBnxqAo78TnRY1SovkADTIKQKQpoBiyk3HR4LSkDbLbCTTx/U4N7IFjz9YBHS0QTt4HXXn2tH+8bvoFI5N25gPz61G9KeWY3yWuwM9TRdxqWUA5omRcLUGBamY4fwEzk68+7urUD/yKLaoAKlEOl4fscKZKgHgROc7dbia/Qge3awCgiqUb6hBfulu1KaZFv45RLQAUV9U0tbWBrPZvKxFJRGla0TdrVocnq1HjohiCheVRE6kFpW888472LVrFzo6OrBp0ya0tLRg27ZtuHr1Knbu3ImzZ8/iscceg1QaCkgYn0PY+Pp5mNLUgNMB1fbDeMDzNs4MFKHY1wHr2i9ju/4yDPv2YouuEY3GvagdaYRhXw7MDQXYu68ILQ2NKNi3AT1vdaLq4G7kA0D/uzj+lg6aIjWkyMc9j+9GKcY/CxqNe7F3yrzslro64PCj8Jz+Fay7n8bGzjq0r3sEaZfOwbNmNdxtLfDe899Qrm9Ewb69UF+vn3Z+j/rfxYmBChw+uAFqeHDt9HFcxWoUpAGqqr14RHYJpzs1KHAPIG3fYdzTfRrHm4HVuQpAVYW9n/Hj4jkj8gs8GMB2HP4sP6cofKIeCM1mM5qbm8XyNFKpFDt37oRCMfU7HhHR3RgIIyeSgbCqqmrW/QY/+OADHDp0CBKJRGwKAw86mntRvrUGC5uxTpQcoh4IiYjCiYEwciIVCI1G45zbzmRkZKC8vFwsE1EEMRASUVxjIIycSAVCIoo9DIREFNe8Xi+sVq63jASVSsVASJQkGAiJiIiIklwcbjtDREREROHEQEhERESU5BgIiYiIiJIcAyERERFRkmMgJCIiIkpyDIRERERESY6BkIiIiCjJMRASERERJTkGQiIiIqIkx0BIRERElOQYCImIiIiSHAMhERERUZJjICQiIiJKcgyEREREREmOgZCIiIgoyTEQEhERESU5BkIiIiKiJMdASERERJTkGAiJiIiIkhwDIREREVGSYyAkIiIiSnIMhERERERJjoGQiIiIKMkxEBIRERElOQZCIiIioiTHQEhERESU5BgIiYiIiJIcAyERERFRkvv/AbkaPAAWQyAPAAAAAElFTkSuQmCC;clipPath=inset(12.05% 5% 2.41% 1.67%);" vertex="1" parent="1">
          <mxGeometry x="-973" y="915" width="607.33" height="308" as="geometry" />
        </mxCell>
        <mxCell id="4oO6HebWnoat48gNqgbb-11" value="" style="shape=image;verticalLabelPosition=bottom;labelBackgroundColor=default;verticalAlign=top;aspect=fixed;imageAspect=0;image=data:image/png,iVBORw0KGgoAAAANSUhEUgAAApMAAAD1CAYAAAAMJH6TAAAAAXNSR0IArs4c6QAAAARnQU1BAACxjwv8YQUAAAAJcEhZcwAADsMAAA7DAcdvqGQAADwjSURBVHhe7d17XFR1/j/wFwwMt+E2xiUvbKtkgmiUpq6irhhrlhIWu/3y2w3tm7V93bbMr+u6u2obuX4127YsrdRt27SstrykpS2mYau4KqaiCfhVREL4MtxmYBjm8vuDGZj5MINwuMyc4fV8PObxkM/7MAznHJzXfM7n8zk+FovFAiIiIiIiCXzFBiIiIiKizmKYJCIiIiLJGCaJiIiISDKGSSIiIiKSjGGSiIiIiCRjmCQiIiIiyRgmiYiIiEgyhkkiIiIikoxhkoiIiIgkY5gkIiIiIskYJomIiIhIMoZJIiIiIpKMYZKIiIiIJGOYJCIiIiLJGCaJiIiISDKGSSIiIiKSjGGSiIiIiCRjmCQiIiIiyRgmiYiIiEgyhkkiIiIikoxhkoiIiIgkY5gkIiIiIskYJomIiIhIMoZJIiIiIpKMYZKIiIiIJGOYJCIiIiLJGCaJiIiISDKGSSIiIiKSjGGSiIiIiCRjmCQiIiIiyRgmiYiIiEgyhkkiIiIikoxhkoiIiIgkY5gkIiIiIskYJomIiIhIMoZJIiIiIpKMYZKIiIiIJGOYJCIiIiLJGCaJiIiISDKGSSIiIiKSzMdisVjERiIiInerra3FsWPHUFhYiKqqKhiNRnETIq9z8803o6SkBDfeeCMSEhIwfvx4cROPwzBJREQexWg0Ytu2bfjiiy8wadIkJCQkIDo6Gn5+fuKmRF5Jr9fj6tWrOHXqFEpLS5GRkYG0tDRxM4/BMElERB6jpKQE69evx/Dhw5GZmYnw8HBxE6J+pbCwEB988AEiIyPxX//1X2LZIzBMEhGRRygrK0N2djbmzJmDO++8UywT9WvvvPMOamtrsWjRIrHkdpyAQ0REHmHjxo2YNWsWgySRE48//jiUSiXef/99seR2DJNEROR2u3fvRmRkJGbOnCmWiMhq/vz5OHToEIqLi8WSWzFM9meNWmgNYiMRUd/bt28f0tPTxWYishMcHIxZs2bhq6++EktuxTGTbqQ5sgV/za1u+UKdgsfmjYMaADR52LI5Fy2VeKQ/n454h+/svoLND+OZbeUAVEhd8R6WTlKJm1AfcjgXbknHc7N7+Ij3wTlFJNWFCxfw17/+FS+99JJYIiJBVVUVfvOb3+Dtt98WS24jj57Jshy8tnYd1q1dh3VrNyK3UtwAAIqws3WbddjpWT3ATmmLcrH3y70tj38VQWsr6IqQa2v/8izKHb+tB+Rhx3bbs2qR89k3bT+7T2mQt7ntmG05onEsX7E/7uvw8bludKOaylFwIAc5B3KQc074OR7A4Vw43fNHvPfPKSLpLl26hGHDhonNROTEgAEDEBwcjPJyz/mfXB5hMkYJ7Ve2N8KP8dFhJ2Hgwj/xfuub5WUgUtyA2iRj+rS2nsj4O0bCPf2SWhT9y3bM9iK3yC7SmkqwNXsVdtqOaXUC7kpQ2n9z15Tl4OWXVmHVS6uw6tMCsUpEblReXo7AwECxmYhcCA4Oxg8//CA2u408wqRiHJLHtH1ZUNA+DJTk5aE1YiZNR4rasU72lBi35EN8+uGH+PDjz/HmL+LEDdyuaPMybLH1LoenYvnSmd0LvFVVbecHEXmUwMBABAcHi81E5EJAQIBH/c3II0xCielTxrV9eeYsiuzL0CD/eEnrV4kpKS1jD20atSg/l4ecA3koKNPCYLIvCgzCtmK9OwxaFB3PQc7xImgNQGxUrLiFayYDtMX5yDmQj6Lajl+VobYcBUdykHOkAOUut1VCpVZDHd6N3j57XdnH16E9vAqLWy/Dx2Hu2qVI6VaSBFCn6ZNL+YbaIuQfyEF+sbAPTIaW/XOkAOWdnPXU8lydOA8NWmiK85FzIAf5xZruT6oSj53EY2vQtpyHeefKhdfU+XOZqCuqq6tRXFyMwsJCtzwuXLjQ+qioqBBfHpHXks8EHM1OPPPAa2jpk4zHgnffROZAa61xL5alr0MeACAOWZs3Ye4QA8oPv4/X3vwYedeENyxlPOauXoOsJPuEokX++mew7LMSxzduZRxS5i3CovsToQKQ+1IaVh6w1qYtx/7fpli/yMWqtJXIsX6VumI/lk6yfgEDij5ZhmVv50NjeyNWxCJ9Rix27slv+fqmLGx6ey7iAODKVsyftwUt8TgFC9fcjG9WbUG+Xdea+s7l2LQkpa23zlCO3L+/ho2f5KFc/HWHz8Wa1VlItPt17X+PuEc3YdNDcSja/DCe2mYNceOew+fZM9EWNYuwce5T+LgSANTIXP8hFgzv6j4WlWDrf87HlkstX8U9ugmbMkqw6rGVyKltaYt/dBPefMix57RLxyDOfl+213qcDq9C2orW78Ty/UvR+qwufl5b+zg892EWdP+zDBuP2x+kVCzftBTJl7Zi5YotyLf+ToAS8f/5pkOPcMnf52P+u9ZXOSYdc5u+wNYzdvtUnYyFq9cg/aa2Js2Fvfjrmtex95Kw7xVqpDz7KpbPsPuw4nBO2f1+phJseXI+tlqPgWracrz32xSo0LVj2/b61ch85U3cdnAxVtr/LSnjsWD9m8gMysWq/16JnLLWb21/LlO/s337dvj7+2POnDliqVNqamqQn5+PyspKBAQEuP22ixaLBQ0NDQgNDcXo0aMxcKDtzUoas9kMg8EAs9kslkgGFAoF/P394evbc/13K1aswIMPPohbbrlFLLlFz/1mvU2djPGtb6RFOHna7g3u+yJryAQQk4JxQwBU7sSqFVvbvxECgKEIW59fhp12E3lKti/GYjFIAoChBLn77UKgBJrPFuOpDcJzmMrbgmSHcvHaYscgCQCar17GW8ftvt61Ciu3tQ+SAGC4sBXP/H7ndS/zxk9NRWv8OJ6PPPvXeyUPebb9FZWK6cO7vo+vT4u9q9qCpGracqwRgqRnKsBbTzzlGCQBQJODlfMfxvzn7YMkWj5cvP2yNZg7cXynY5AEAE0+Xnt+FfIarV+b8vHXJevaB0kAMGmQu/YpvHbd00uL3NXPtAZJDMvCq7ZQJ/nYavDFivntP5QZirDx+Yfx8DzHIAkn5zJRVxiNRnz77bfw9fXFz372M6Snp+Puu+926+Oee+7BrFmzMGDAABw+fBgazfX+93VNq9VCo9FAq9WioaGBDxk+6uvrodFo0NDQIB5eryGfMIk4jPtJW09LXn7bO2XRsdzWS5jqqZNbljyJykTWbBUQFIeUR5/D0j9mI/vJVMQqrBuaCrDjS1t/VQly99sunKuQsuQ9fL7zU3y4YTnmjhuHBb+Zizjb93VVYw5e3mA3xnNgKhb8dimWPpmO+M7eclahRmLGAjz3aErb64cW3xxu2wfqjCykhwPKm1KQ9exSZP8xGwvutOuZOrMDX1xp+9KpYZORGmP9tykPJ0+3lTTHj7b27qmnTZewj69P89kyrGvpXm4Z15naA71VIfFImTETybbfCwBikjFzxkzMnDETI7sw0sA1LbS1gHLITCx4Ngsp9p0QmnJo0HL8FmTE2/0+BfjnAdcz8dRj5uK53y7Fcxnxbb3DtTl4f4/1TUmRjMceTQSUsUjMWNCy75+di+TWc0qLnXtybV84VfL3xVh5wPqXE56K5WvtzvNuHFttrRZQJ2PuswuQPtzuCNaWo9ygRNyULCwQzuW9X7UeeKIuOXPmDABg4sSJHnUf76CgINxxxx2IjY3Fd999J5Y7pbGxEXq9XmwmmWpoaPDa4ymjMAnE24+FPHXSOm6yBHl5tk99aqRObVs9L/nJD/H5p5uw/KGZSJ0wDuPuX4pFd9tdmvtf25uhAfW61mYYGgEEqaAeloKs7Gxk2l1a7CrDoX/a9fAlYsHapciclorU+xdiaUZnet3iMHfDh3j16UzMfGi5w+vX/m9JW2+jIhkL3vscn7+9HHPvTsW4CeOQ+fwipLf+31qCwv9t/VYX4jE51ZautMg9ZgvYBhw9ZgvEUvfx9Wlr7Uc1GpDz+kYUdaNHGACgHoes55/DvYl2bYn34rnnn8Nzzz+H9B5ajUQ9Ixsfbn4OmXfPxfJn0+1Coxrpa1uOX+bTr+IJu6G/Ra72zZjnsOlPWZg5LRUzn16D/7KffJab23rM1bPX4PNP38OrT2e27Pu7s7D0UbtftKjQ5eX9+sOr8My71uOriEeWk3Gpko9twgK8t3UNsu7OxMI/ZsF+1yc/+yE2/X4uMh9ajuX3241s/t8SLldEkmg0GgwaNMjtl7ZdGTJkCKqrrWvIdpE392T1V42NtstL3kVWYRLDx7e94VXmI78MQONZnLVdplOlYPxwu+2VSqAsF1vXPoP5D9yDtLQ0LN5lF1hKSqxvtvGYPq0tROX95WHck/4wnlm/F0XSr04AAEpK7KYK3TQe46Lsq50Rj5vtwqxabfcGrNU6TCpRKoGSw1ux7tn5eCA9DWl3LcZOu8urJSUu3vzt2F/q1uTltewfUx7ybZchbZe4bTq9jyW49jFe/kTyd/cpVWxsW4AcMMBuApgKA1oDvRKhIa0FwOTkEjIAhIXahVEVRibZfeiwP+YKJVBbgL2bl+GpuXNwT1oaHviLXS/4lXIX+z4Xr7+U0/o8iU9nY66zD0xSj21sbFuvo1rdNnQCgDq87TdTBtmlV5Oh/RATok7Q6XRQqbp9DaPXhIaGwmg0drlHymw2Qy5TGqjzTKbu9pB4JnmFSSRj8hTbfxrWcZMn8q0TbwDVlMlIbt1Wi9zVD+CeeSux5csClGg6fquKn7cGy2fEtV1SbCxHwWfr8NTcB7DqsPR5wOWV3UyjnaXNxaq592D+ii3Ye6YEGqkffuwvdV862jJW8/TJ1t5V1YTxdndO6do+7gzVtOV48+m2vqyizRuxV/ru9z7/17bEUcn2pzBn7jNYty0PRZXXmfHtwACD3cYF776P/Hb/v/X8sSWizuvJyRrkORQKqWPmPJvsztbkcW3XCQu+L0BRQdu4wXHj2qKk5rNlWPmV9W03PBlzV7yJTz/fj02Puri0rIhFyvOb8Om7a7AgIxGxtlRp0iDnj6uQIzGcxUb1xYKXGuz8/UrkWH9dVfJcLN/wKT7fvwlZznqcOmR/qbsAJ8/Yj0lVIXVKN/bx9YSnYtGvUhCfsajtdZvy8NZfcrsQlLyQfdC7wdrrmf8annm7qGW/KGKR+uyreG/nfuxfkWq3cceUtnO8dide3iwsttXTx5aIuiwkxP5SBnkDT1obsifJLkzi9mTY4qT2yEfYYhsvqUjF5Altm9kvbB6XsRBZk+KhUjpZQ8/G2q4cmIzMp1/Fe5+uQbrtkrSpAGe/t9/YSlffGnIMxYXC2pct4uLs7oB86WjbjGh08Fq6rABnW8agA4jDz3+VhZRhKigBNEn4GfFpM1uWKAKQn5+DggJbSk3F5LYs2fV9fB1xGf9hHcYQh7lPt4071B54GRtdzUzuxDEAAKX9h0G773FOi3rbhwdDUSfGmvYwh1n/Rdi7v+1ismpUIuIAlJzJb7vcPWUBlt6diNigDi6dC1TTluPDDVmtx7l8+6rWJZrQC8eWiLouKCgIQUFBYjPJVHBwMAICAsRmryC/MBk0HuOTrP+uzEOe7Q1wTDLGueg9LsndgZzj+cjZvBiLtzkb5aVF7uo5uGfeSmw9XASNRgPNlRKUt/ZGxuLG6JZ/xcfbhcO81/HUsnVY98dn8PDTW52OH1PekYLk1tdVgI3Pr8TWPTn4eP0zLl5Ld5Xgm09zkH88B1t+sxhbrzeD25khKZhu7RnUHtmI961BVTXNfhiBo+vv4y5KzsKi1iENWuxcvwUl1iDT1WMAAPG32E0DyXsLK7flIOdAbtuY2B/fbHf5Pg+vP70M69auxDMPP9W2dE5fObQK8/+4FXsPfIzXfrUYH1+zFRx7hlud2Iutx/OR/8k6zF/d8QzuFilYtCQFqiFzsfQXtl7oEmzNbtvH9nr82BJRp4WEhECtViM0NBQhISF8yPARGhoKtVrttb2SkGWYhBopU+3nh7YYN2W63QLbwDi7y+Eo3olVv1mMVdvyna61qP1qFVYd0MJwJRdbVjyFBx54AA88+RrybF0/49Jxl3W5l9hp0+1mpxpQkrcXew8VQIN4xDu7pKyeiYUP2YWfslxseWUVNn5W0K21Kx2Nw3i7XtmiXauw+DersPW4BnARsDsWh5Sp1j6rSo11n7UPMl3Zx12nQsqTWUi0vf5LW/HyrpZn7vIxAKC+8y67Dxta5G1ehVUvrcSWY9aevIGpmJ7Qtr3hSh72fpmLAg0QP6yPL+0qDCg5tAXrXtqInRfaBoyqpi1ClvUQxP0kpW1iS20etvxmMRZv2Os0DLanbD0v4h9agFRbZr+0FausE55699gSyU9DQwPq6uqg0+n6fPFwX19fBAQEtPZU8iGvR0BAgNePgZXlb6ceM7718lyLRIy/w/G2gMo7l2JNht2EGgDKIenI3roc4qgy1Z3Lsem36UiMEW8tqETcjOV47wW7+0JHZWLR08mO6x+qk7Fg/atYagtggriH1rS8Fvtgp07Ggg3ZSO+RSYhKpC5Zg/QhDr8t4jKy8eFvxd+2c+KmTnfcx6rJmDzKvqFr+1iSqHQsvL9tLnDBhpdbJuNIOAZQzcTS7HTECYe4oMh2YVyNzOcW2q3T2LK+Z/KTb+LVZcK+6FWJWLjhVWSNsR9r23IsHe4SMywL2U8nQy2eU+vf7No42aAULHyyLTgWbV6FrZf64NgSyUhtbS0aGhpgMBjQ2NiImpqaPg+URJ5MPrdTlKpRC02jAVCqoFaJYbE9g7bt3sZKlbplnJgztueFEip1y/jE6zJoodF28Xu6yFCrgdZ0ndfe07q4j3uMlGNgMkBba5357Oz12tX7dB86YTsXO3wdtnNKoeq5+6zbc9expX6lO7dT3LVrFxITEzFsWA8tGiswGAyoq6sTmxEYGNipJYmqqqqQk5OD2bNnIzAwUCwTScLbKfa1IBXUanWn3wiVKnXL9uoO3sBh97ydDTGwhpeufk8XKcM78dp7Whf3cY+RcgwUSqisx9fp67WrOyv3Jdu52OHrsJ1TvREk4cZjS9QHLBYLamtrUVVV5XIxaVc9kEajUWzqkI+Pj9hE5DW8P0wSERE5UV9fj+bmZlgsFuh0OjQ3N4ubuFwX0FPvuEPkDgyTRETU7zQ3N8Ngv3q/i9sX+vv7w9/f36HN19fXq2fmEnUVwyQREfUrFosFWm37W2s1NzdDr9ejvr4eGo2m9dZ34eHhCA4OhlKpRFBQECIiIrx+di5RV/CvgYiI+pWGhgaX90jWarVoamqC2Wx2mHgTHByMsLAwhISEMEgSCfgXQURE/YbZbHY52UZkMpmcXvomIkcMk0REJFtdnSWt0+nEpg41Nja6nNHdFd6+Ch/1bwyTRETUL5hMJjQ1NYnNHbLN9CYi17x/0XIiIvJo3Vm0fPfu3UhISOjUouU6na7Tl7hF4eHh7WZ1d4b0RcuNyPnoU1SJzcoQKA26lhsv2AvwA5rar33pB6Bdq6vnGJCEn6fa3Ve2Q+eQ89GZbr++4GCg/UgCPwTAiHaxPzAOKbPH40ax3YVzOR/hTLsX6OK5e+R1ByJu8myMb7txW6/houVERERu0J2JM87WoCSiFtL/soiIiGQkKCgIYWFhCAgIaF0/sjOPwMDALvYqEvUvDJNERNRvKJVKhIaGIjw8vNMPlUrVrV5NIm/HMZNERORW3RkzuWvXLiQmJnZqzKQ7SB8zSeQax0wSERERkddgmCQiIiIiyRgmiYiIiEgyhkkiIpKt0NBQh3toe5q6ujr4+flxvCR5NYZJIiKSrcjISJSWlnb5zjZ95fLly7jhhhvEZiKvwjBJRESyNXr0aCiVSuTm5qKqqt3tTtymrq4O3377LSorKzF69GixTORVuDQQERG5VXeWBgIArVaLU6dOoaysDL6+vlAoFOImfa65uRkRERFITk5GVFSUWCbqFk9bGohhkoiI3Kq7YdKmvr4eNTU1MJlMDu0+Pj4OX4t6420wIiICERERYjNRj2CYJCIistNTYZKov/C0MMkxk0RE5FYWiwVGo1FsJiIXTCYTzGaz2Ow2DJNERORWarUatbW1YjMRuVBTU4MBAwaIzW4ju8vcZrMZzc3NvTLGhag/UygU8Pf3F5uJel1RURHefvttrF69WiwRkaCiogJ/+MMfsGHDBrHkNrIJk2azGTqdzmPXEiPyFqGhoQgICBCbiXrVs88+i6eeegrDhw8XS0Rk59NPP4VGo8H8+fPFktvI5jI3gyRR36ivr/eosTjUP9x1113YsWOH2ExEdmpqarBr1y6kpaWJJbeSRZg0mUwMkkR9qLGxUWwi6lUzZsyAwWBgoCTqwDvvvIOZM2ciLi5OLLmVLMIkZ/kR9a3m5maxiajXLViwAAcPHsTu3bvFElG/9/rrryMwMBA///nPxZLbyWLMpMlkQnV1tdhMRL0kMDAQKpVKbCbqddeuXcMbb7yBqKgoZGZmIjY2VtyEqF/57rvv8MEHH2Do0KF4/PHHxbJHkEWYhHWcAHsoifpGREQE/Pz8xGaiPvPxxx/j888/x8iRI5GQkIDo6GiPuE0iUV9oampCaWkpvvvuO+j1etx7771ISUkRN/MYsgmTJpMJdXV17W6TRUQ9Kzg4GMHBwWIzUZ9rbm7GsWPHUFhYiKqqKv7/T/3CwIEDUVVVhdjYWCQkJGDUqFHiJh5HNmHSxmAwsIeSqIdZLBYoFAoEBARc9z7GRERE9mQXJomIiIjIc8hiNjcREREReSaGSSIiIiKSjGGSiIiIiCRjmCQiIiIiyRgmiYiIiEgyzuYmIiKPV1NTA7PZLDYTeSWlUimru5AxTBIRkUf66quvcPToUVy4cAFBQUEICwuDTqcTNyPyKhMnTsSBAwfg5+eHkSNHIiUlBbfddpu4mUdhmCQiIo9y4sQJ/P3vf8eQIUMwZcoUjBw5EoGBgeJmRF5No9Hg5MmT+Oc//4mIiAg8+uijiImJETfzCAyTRETkMb744gt89tln+M///E+MGTNGLBP1Szt37sSePXvw61//GiNGjBDLbie7MGmxWNDc3AyZvWzqQb6+vvD39xebiUjmDh48iH/84x9YsmQJBg4cKJaJ+rXDhw/j3XffxYoVKzzu70M2YdJisUCn00Gv14sl6od8fHwQGhoKpVIplohIhq5du4bnn38ey5cvR3x8vFgmIgB79uzBiRMn8Lvf/U4suZVslgbSarUMktTKYrGgrq4OJpNJLBGRDO3YsQMZGRkMkkQduPvuu2GxWJCbmyuW3EoWYdJkMqGpqUlsJuIHDCIv0NjYiAMHDuCuu+4SS0Qk+NnPfoaDBw+KzW4lizBpNBrFJiIAQHNzs9hERDJTUFCAW2+9FSEhIWKJiARjx47F2bNnPer9TxZhUqFQiE1EAAA/Pz+xiYhkpqysDEOGDBGbicgJhUKBwYMHo6ysTCy5jSzCpJ+fH0MDORUQECA2EZHM2BYmJ6LO+eGHH1BQUCA2u40swiQAqFQq9lCSg+DgYC4RROQFRo8ejeTkZLGZiFwYNmwYhg4dKja7jWyWBrIxGAxobm6Gj4+PWKJ+wGw2Q6FQQKlU8sMFkZfYvn07/P39MWfOHLHUaRqNBqWlpaiuru7UKg/Xe+vr7ntMZGQkYmJiPG49QPIOK1aswIMPPohbbrlFLLmF7MIkERF5l+6GyfPnz+P06dNQq9VQq9VuHxZlNptRU1ODiooKxMfHd+u+yhaLBXq9HgaDASaTCWazubXm7t+TnLOfNKxQKKBQKODv74+goCCH7bqDYZKIiMhOd8JkZWUlvv76a9x6660YPny4WHarK1eu4MiRIxg7dix+/OMfi+XrMplMqKmpuW4vKsmDQqFAREREt3u94YFhUjZjJomIiEQXL17EoEGDPC5IAsCQIUOQkJCAwsJCsdQpjY2NDJJexGQyoaGhQWz2CgyTREQkW9XV1YiIiBCbPYZarUZtba2kNQF5Uwbv463HlGGSiIhkq7m52aOXCLO9ts5MCrJnPzaSvIe39jQzTBIREXkYX19f+PryLdrbePIHn+7gmUpEROSBQkNDxSaSuZ6c0e1JGCaJiIg8kL+/P8LCwrimrhdQKpWIiIjw2uWcuDQQERG5VXeWBtq1axcSExMxbNgwseQRqqqqkJOTg9mzZyMwMFAsdwnHUcpTbwxX4NJAREREMmIymVBbW4uqqirU1NRImpndE2zjKPmQ16M/kF3PpMVigdFo9NoZUdR/+Pj4QKFQ9Jv/bIhc8eSeSYvFgurq6na9gp29ZNmTPZNENp7WMymbMGmxWKDT6bx2jSbqvwIDAxESEtIjd0UgkiN3hkmLxQKTyeQyGDY1NaG+vl5sRkBAQKcmyDBMUm/wtDApmy4RBknyVnq9HjqdTmwmol5mNBqh0WhQU1ODuro6sQx0sC6g2FN5PfywSN5MFmHSbDYzSJJX0+v1XX5zIqLuqa+vbw2LBoMBTU1N4iYueyz9/f3FJqJ+SxZh0l2DnYn6Es9zor6j1+vb3ZWmoaEBFoul9dI3rGEyODjYYTt/f3+vXS+QSApZhEmusUX9Ac9zor5hNpudDi0xmUzQ6XSoqalBdXU1DAYDACA4OBgREREIDw9vffCyNVEbWYRJPz8/l5caiLwBz3GivqPVal2OhbTvsayvr28dfuLn5wd/f39e3iZyQhZhEgBUKhV7bsgrKRQKqFQqsZmIekFzc3Nrj+P12FYRIaKOyWZpIJumpiYYjUYYjUb25JBs2c5fPz8/BAQEiGWifqU7SwPt3r0bCQkJnV4aqKamBkajUWzuUGfXlHSGSwNRb/C0pYFkFyaJiMi79FWYNBgMLpcA6oifnx8iIiLE5k5hmKTewDBJRERkp6/CpE6nQ2Njo9jcKaGhoZKuIkgPk0bkfPQpqsRmZQiUBh3aXagP8AOa2ve4+gFo1+rqOQYk4eepCWKrC+eQ89GZbr++4GCgoUFs9UMAjGi3UFNgHFJmj8eNYrsL53I+wpl2L9DFcytD4G/Qod2aGl163YGImzwb42PF9p7naWFSNmMmiYiIusPf31/yLGyuA0vkGsMkERH1C0qlEmq1ut0yP515cF1J7yftYwaBYZKIiPoTHx8fh2V+OvsgItc4ZpKIiNyqO2Mmd+3ahcTExE6NmXQH6WMmiVzjmEkiIiIi8hoMk0REREQkGcMkERHJlo+Pj0fPtPbk10bUUxgmiYhItiIjI1FdXS02e4zq6mqEhIRwvCR5NVlOwOnsfVXJOykUCt6nnciLdGcCzqVLl3Ds2DFMmTIFMTExYtmtdDod9u/fj6FDh2L06NFimUgyT5uAI6sw2Z27F5B38fX1RWhoKJfsIPIC3QmTAJCXl4fLly9jxIgRiIiIcPv/CxaLBRqNBhcuXEB4eDhSU1PFTYi6hWFSIq1WC71eLzZTP6dWq+Hry9EaRHLW3TAJAMXFxbh06RKqq6vhCW9rYWFhGDhwIEaNGiWWiLqNYVICs9kMjUYjNhMhKCgIISEhYjMRyUhPhEkbs9ncrTAp9XaLIn7Ipd7kaWFSFme70dj+JutEANDc3Cw2EVE/5uvr2zquWsrD19e3Rx5EvSkiIkJscitZnPH8wyRXOBGHSP78/f05sZKoCyoqKtw+NtieLFKan58fQwM5FRAQIDYRkcxER0ejvLxcbCYiF65du4aoqCix2W1kESYBIDQ0lIGSHAQFBUGpVIrNRCQzw4cPx9mzZ8VmInLi/PnziIqKQmhoqFhyG1lMwLGn1+thNBphNpt5+bufMRqNUCgU8PPzg1Kp5IcLIi/ypz/9CRMmTMBPf/pTsUREdt544w0MGTIEs2fPFktuI7swSURE3ufMmTPYsGEDVq9ezRUaiFw4efIktmzZgldeecWjOlTYtUdERG6XlJSESZMm4Y033hBLRATgypUr2LBhAx555BGPCpJgmCQiIk/x4IMPIjw8HH/60588+n7bRH3tzJkzeOmll5CZmYmxY8eKZbfjZW4iIvIoH3/8Mb744gvMmTMHU6dOhUqlEjch6hdKS0uxf/9+HDlyBPPmzcP48ePFTTwCwyQREXmcixcv4osvvsC//vUv/OhHP0JUVBT8/PzEzYi8TkREBMrLy1FWVga9Xo8pU6Zg1qxZHj2WmGGSiIg8lslkQnFxMaqqqmAymcQykVcKCAhATEwM4uLixJJHYpgkIiIiIsk4AYeIiIiIJGOYJCIiIiLJGCaJiIiISDKGSSIiIiKSjGGSiIiIiCRjmCQiIiIiyRgmiYiIiEgyrjNJREQeqaqqCnl5eSgsLERVVRWMRqO4idvFx8fjypUriI2NRUJCAn7yk5+45U49ly9fxokTJ3Dx4kVUV1fDE9/aL1++jISEBAwaNAhJSUluucd0RUUFjh07hqKiIo9dCD8xMRHFxcW48cYbkZCQgIkTJ8LX17P7/hgmiYjIo+j1emzbtg1ff/01UlJSkJCQgOjoaLeEtM5oamrC1atX8d1336GgoAAZGRmYNWuWuFmvKCsrw4cffoji4mJMmDABw4cPR3h4OPz9/cVN3e7KlStQq9UoKSnBiRMnUF1djfvuuw8pKSnipj1Op9Nh27Zt+PbbbzFp0iSMGDEC0dHRUCgU4qYeQa/X4+rVqzh16hQKCwuRkZGBmTNnipt5DIZJIiLyGBcvXsTrr7+O5ORkZGZmIjg4WNzEo5WUlOCDDz6AQqHAwoULoVQqxU16zNGjR/HGG28gMzMTs2fPFsse7/Tp03j//feRkJCARx99VCz3mAsXLmD9+vUYN24c7r//fgQGBoqbeLRLly5h27ZtCAoKwsKFCz0yADNMEhGRRygpKUF2djYefPBB/PSnPxXLsvLee++hpKQEy5YtE0s94tixY3jjjTewaNEiJCUliWXZMJlM+POf/4zw8HA8/vjjYrnbLl68iOzsbDz22GOYPHmyWJaVLVu2oKKiAkuWLBFLbufZF+GJiKjf2LhxIzIzM2UfJAHg4YcfRlRUFDZt2iSWuq2yshJvvvkmnnvuOVkHSQBQKBRYtGgRysrKsHfvXrHcbRs3bsRDDz0k+yAJAFlZWQgNDcXf/vY3seR2DJNEROR2O3bsQGxsLNLS0sSSbM2fP791HGVP+uijj3DPPfdg1KhRYkm2srKy8MEHH6Curk4sSfbJJ5/gpptuwrRp08SSbM2fPx9HjhxBYWGhWHIrhkkiInK7/fv3y3LcX0cUCgXuuecefPXVV2JJssrKShw/fhwZGRliSdaGDBmCKVOmICcnRyxJtm/fPqSnp4vNshYQENDj51RP4JhJIiJyq/Pnz+O9995Ddna2WHKg0+lQU1PT+rWPj49Dvbd09DYZFBSEyMhIl69Fq9Xi6aefxrvvviuWJNm3bx8uXbqEJ554Qiw5qKurQ319PdCH+wnX2VehoaEICwsTm1sVFBRg27Zt+OMf/yiWuuz06dP45JNPsGLFCrHkoKGhAdXV1a1f99W+6mg/BQcHIzIyUmxuVV1djcWLF+Odd94RS27DMElERG715Zdf4urVq5g3b55YAgDU1tbi5MmTqKysFEseIzk5GTfffLPYDABYvHgxFi5ciLi4OLHUZW+99RaGDRuG6dOniyUAQHl5OU6ePAmtViuWPEJwcDBGjx6NIUOGiCU0NzcjKysLf//738VSl+3evRvV1dV4+OGHxRJgDWT5+fn4v//7P7HkEXx9fXHrrbciPj5eLAEAfv3rX2PJkiW48cYbxZJbMEwSEZFbbdmyBQqFAo888ohYgk6nw759+zBgwACMHDkSkZGRHrWAs06nQ0lJCc6cOYORI0ciMTFR3ATLli3D3XffjUmTJomlLnvhhRcwZcoUp5OUysvL8c033+Cmm27CzTffjIiICHETt6qtrUVxcXHrmpjOAuUjjzyC1atXdzskvfXWW1CpVJg7d65YQn19Pb788kvExMS0nlN91SPZGVqtFpcvX0ZBQQFGjRqFESNGiJvgv//7v5GZmYlx48aJJbfwnL9IIiLql0JCQhAaGio2AwBOnTqFsLAwTJkyBQMGDPCoIAnra09ISMBtt92Gs2fPora2VtwEwcHBCA8PF5slCQoKcnmpOD8/Hz/60Y9wxx13eFyQBIDw8HDcfvvtiI+Px6lTp8QyACAwMBAqlUps7rKQkJAO99OAAQMwefJkqNVqjwqSAKBSqTBy5EjceuutOH36tNNe5p48p3qCZ/1VEhER2amoqMCPf/xjsdnjxMfHw8/PDxqNRiz1Ca1Wi/r6epeXRT1JfHw8GhsbHcYq9qXKykoMHTpUbPY4w4cPh6+vr9vOqa5gmCQiIo+k1+vR3NzsUT0wHQkPD4dOpxOb+4St90oO+yo0NBQKhcJpj1tv0+l0MJlMsthPABAWFtY6kcqTMUwSERH1EE5DoP6IYZKIiIiIJGOYJCIiIiLJGCaJiIiISDKGSSIiIiKSjGGSiIjIems9jUaDqqoq1NfXw2w2i5t4rL5cK9FisUCr1UKj0UCj0UCr1XLikQs6nU6251RXeN0dcHQ6HYxGo9hMRB1QqVRQKBRiM1Gf2L59O/z9/TFnzhyHdr1ej127diE1NRUDBgxwqPU0nU6HxsZGhzaFQoGIiIhOB7WcnBxERUVh1KhRDu3Z2dm49957kZSU5NAuxZo1azB9+nTcfvvtDu3Xrl3DoUOHcN999/X633JtbS2am5sd2vz9/bu03M4//vEP3HHHHe3ugvPEE0/g5ZdfdrmIfWe9//77CA8Px6xZsxzadTod9uzZg7S0tF5f2F2r1UKv1zu0dfWc2r9/PwYNGtTuzkorVqzAgw8+iFtuucWh3V1kHyarq6vx73//G+fOnUNpaSn8/PwwYcIEHD9+XNyUiJywWCyor69HdHQ0br75ZiQnJ8ti4WPyHp4QJquqqpz2roWGhiIgIEBsdqo/hEmTyeRysfGIiAj4+fmJzU71hzDp6r7fXTmnGCZ7WXNzM3bv3o3Dhw9jwoQJSEpKwk033YTAwEBxUyLqhKtXr+L8+fP497//jbCwMMycORM33XSTuBlRj+vNMGkymVBfXw+TyYSQkBCn7xFms9nlXUaCg4MRHBwsNjsl9zBpMBhaFxIPDQ2Fv7+/uAmam5ud3jIS1gW2lUql2OyUnMOk0WhsvWTd2+eUXMKkLMdMXrx4Ef/zP/8Dk8mElStXIjMzEyNGjHB6QImocwYNGoTp06djyZIluPXWW7FhwwYcOHBA3IxINiwWC2pra2E0GlvH+YmXZwHA19fX5T2/pQYzubGFbrPZDLPZjLq6Oqfj+zraHx3VPEVnLy+7YrFYUFdXB5PJ1HpOORta5+vr6/Jndbb3Vk6c//V4sPPnz2P9+vWYMWMGMjMzERISIm5CRN00ceJELFq0CCdPnsTu3bvFMlGfcPVm3FkNDQ3tApGr2x06ey/x8/Pr9OVIuRMn0VgsFjQ0NDhsA2tICgoKEpsREBAgizDZXT1xTnW291ZOZBUmS0tLsXnzZsybNw9jx44Vy0TUg6KiovDLX/4ShYWFyMnJEctEHs1kMrWbUAPrJcqmpiY0NTWhrq6utVcpICAA4eHhCAgIgFKpREhISJcmlLhbd0asGQwGpz22er0eRqMRjY2NrUMFYA1JtnF/AQEBUKlU3b4sLQeuzqnm5mY0NTVBr9c7nFOBgYGyPqe6QlZhcvv27cjIyMDIkSPFEhH1gsDAQDzyyCP46quvUFRUJJaJPJZt7J8zWq0W9fX1MBgMqK2tbe1p8vf3R2hoKMLCwhAUFNTtnlE5sF2qdaW2thY6na41fNtCa0BAAEJDQxEaGtpvhph1tJ+0Wi20Wm2/PadkEyb/+c9/Qq1WY+LEiWKJiHrRgAEDkJGRgT179oglIo/kqqfNRryc6+oyZX/Q2NjY7rKtPft95apnrj9oamriOdUB2YTJgwcPIi0tzaHtX//6F375y1/i7rvvxn/8x3/gtdde6/BgE5E048aNg9lsxtmzZ8USkcfp6ht5U1MTDAaD2Oz1zGZzl8NhY2Nj6+Xu/kTKOdWf8ogswuR3332HG2+8EYMGDWpt27NnD1544QUkJSXhd7/7HTIzM3Hs2DEsXrzY9diR4uM4ePCg9XEcxWLdhYozh3Fc2Lj4+GGcvubY1qYYxw8exMFvT6NCLPWKYhwXflbFmcN2v+tBHBR/AaIuuuOOO3DixAmxmcij6PV6SWFHnIDSHzQ0NHT5d+6PvW7X6711paPL4t5GFmGysLDQYS0ljUaD119/HYsXL8Yvf/lLTJw4EXPmzMGGDRtQVlaGXbt2OXw/AODaaRwuBQZPnYqpU6di6mCgtJMBKzppEsYME1s7cK0BetVgTJ04CtFirVcMwxgnP0s12Pq7Tp2KwSjF4TN9E23JOyUmJuLChQtiM1Gv6WrQgfWNXwqz2ex09rK3slgs7e7O0lkGgwFNTU1is9eSup9MJlO/OadkESZ/+OEHDB48uPXrM2fOwN/fH6mpqQ7bBQcHIy0tDfn5+Q7tAFBRWYfAwWPQmgmHjcHUwaEtvXlOeiwrzhzH4W9beheLnPRMtmr3vRU4XayBUWsLb9ZeSrvewXbPfdz6HMeLUXy8ZVtb8LN9bf/9bW223tH2PZOiYWMGI7DuGiqEXsuWp6zA6W/bfo7tZ1fYvzbb87f7fR3bXL/uCpw+fhiH7bYheYmMjASsA/KJPJHFYpHUK2kjNTTIUXf2E7oR2uWmu+dUf9lPsgiT9fX1DivVd7SWlUKh6Pw4hZhoRAOoUA1p68FT6dFwDQD0QFgCpk4chTDx+0SqwZg6dSoSBuhRUxyNUcPU8FMNxqSkaBQfLwWsPYSDUWoNb47PrUUEpk5NgLqpFDURUzF1hBqou4YKVCC0tXdxMFRNDahAMWqa1EiYOhVTp07CqBjxxVxPMa7UhVm/PwHKa7bL/X5Qj2j5ObbQidbXNhUJYXW4Uux8XxXX6K3fOxWTkqIBp68bQBMQNsK2DclRWFhYv7p0Q/Li4+PjdA3EzurovcXb+Pn5Ob3DTWd548Lbzvj4+HRrtnp/2U+yCJNms9lhOn1SUhKampra3Z2jsbER+/bta3fbIVeKi1tiVHRMfWvvYand+2RgUOdCj1+Aq/W1KtDQpEKEtTt0WIQK+saWmGb/3CrbBrBuGxOMllM3GtFaW69fKVpe2jAMCavDOYeexU641gB9QDCirzVA36yxfv85aJpt4TkQwU6Cqe21RQcFQt9Y4XRfDRschrrz9r2Qzl43XP4Mkg8fHx9JY4eI+kpISAjUajXCw8O79IiIiJB8ez25Cg8PR2RkZLt9cb1HZGQkVCqV+HReS6VSST6nwr10XUmRLMJkYGCgQ1dxeHg4fvGLX+CVV17BgQMHoNPpUFxcjMWLF0Ov1+O+++5z+H4AiI4Kg77UbtJN8XGUlta0XJb+tgYR1p46tfQPak5EIzhAixrrDy2u0XY6oALWcZ41LT2DU0eoYft8E500qbVNb3vy66iorAMCQluCqr+tZ/P6vZu28FvRqEdgEJzvq5hRmGRra6pBsYvXTfKn1+u79SmdqC/4+vrC39+/S4/+0oMkUigU7fbF9R79qQfXhudUx2QRJqOionDtmuPU6cceewyPP/443nnnHWRkZODJJ5+Ej48PpkyZgqysrHbbI2YUJg0GSm3j+EqBwVPHYBiiEROmt7YXwhAAGHrwKt6wMYOBUmtPHgZ3bSJPTAzCmkpbXm+xAYEwoN5+DOb5OoQNdv2EWuvPPXjwIM41xVovLzv2bF53VntdYcv314VhyDDn+6ptfOQ51IUNwTCnr5vkzmg0oqqqCgMGDBBLRERdJmWCFXkmH4sMjuahQ4dQVlaG//f//p9YAgBcvHgRKpUK0dHRqKurw6JFi6DT6fDKK68gJqaDbjfqUMWZw7gS1MWZ7OS1zp07h/379+NXv/qVWCLqlu3bt8Pf3x9z5sxxaNfr9di1axdSU1Nl8SEmJycHUVFRGDVqlEN7dnY27r33XiQlJTm0S7FmzRpMnz4dt99+u0N7eXk5vvnmG9x3332y6Dn8xz/+gbFjxyIuLs6h/YknnsDLL7/c7dszvv/++wgPD8esWbMc2hsaGvD5558jLS1NFsMa9u/fj0GDBrUbvrdixQo8+OCDDivduJMseiaTkpKQn5/vckbV0KFDER3dcvk4LCwMa9euRWBgIBYtWoTKykpxcyKSID8/v92bJBERkSzCpFqtRmJiIg4ePCiWnAoPD8e6deugVCpx6NAhsUyd1OX1NclrXbt2DSdPnsSECRPEEhER9XOyCJMAkJaWht27d6OionNrFEZEROAvf/kL7r//frFERF20a9cuzJgxo1vLrhB1VWBgIBQKhWyWo9LpdAgODhab+4Ttb1MO+6qhoQEmkwkhISFiCQMHDhSbepRtAqEc9hPcfE51hWzC5I033oj09HRs27bN5eVuUX9auoCot+zduxdGoxHTp08XS0Q9ws/PD0ajUWwGrIvll5aWis0e58qVK9Dr9a2L+9szGo09No7R1b4KDw+HUqnE5cuXxZLHuXTpEnx8fJyOWSwpKemRfeVqP/n6+kKtVuPKlStiyeOUlJSgubnZ6X7qyXOqJ8gmTALAT3/6U8TFxeHtt9/uV7dyInKXffv24ezZs3j44YfFElGPueGGG9qvwGE1evRolJWV4cSJEzAYDGLZI5SUlODkyZMYNmwY1Gq1WEZFRQVuuOEGsVmSjvZVcnIyvv/+exQUFHS606UvWSwWfP/99zh79iySk5PbhaGamhr4+fn1SE9cR/tp9OjRKC0txcmTJz32nLp8+TJOnjyJ4cOHOw2TPXlO9QRZzOYW7dy5E+fOncPPf/5zDB06VCwTUTfp9Xp8+umnqKysxKOPPtpvFt4l9/jhhx/w4osvYv369WIJAHD16lXk5+ejoaGh27N8e1pjYyOMRiNuvvlmJCcni2WUlJTg5ZdfxquvviqWJDl69Ci+/vprLFmyRCwBAIqKinDq1CmYzWaP21f19S2LxI0ePdrpLOTc3FwcPXoUixYtEktdVlJSgnXr1uHPf/6zWAKsPcmnTp1CY2Ojx+0n2zCA4cOH49ZbbxXLKC4uxptvvom1a9eKJbeRZZgEgLy8POzatQtJSUmYOHEihgwZIm5CRF2k1Wpx9OhRHDhwAGPGjGm3VAtRb3nhhReQlpaGn/zkJ2IJsN4JrbKyEtXV1WLJrYKCghAZGYmwMOc33v3b3/4GpVLpcmm7rrJYLHjiiSfwhz/8weX7XmNjIzQaTWt48xQqlQqRkZFOx0oCwEsvvdRyW95Jk8SSJL///e9x7733YuzYsWIJsN6fvLKyEjU1NWLJrYKCgqBWq12G3E2bNiEiIsKj5oTINkwCQFNTE77++mscO3YMvr6+iIuLQ2RkJPy7cb9Rov7GbDZDq9WirKwMJSUluO222zBlyhSXb1REveH48ePYtm0b1qxZ43D7XDkrLi7Giy++iD//+c892ru/Y8cOXLx4Ec8++6xYkq1vvvkGX375JV588UWxJNmRI0ewY8cOrFq1SizJ1vnz51t7untiOEBPkXWYtHf16lWUlZWhurra6aBbInLO19cXKpUKMTExGDp0aLtxTER9ZfPmzWhsbMTTTz8tlmSnrq4OL774ImbOnIlp06aJ5W7Lzs7GiBEjPKp3SqrCwkK88MILWLZsGUaMGCGWu+Wtt96CxWLBggULxJLsaDQavPjii5gzZw4mT54slt3Ka8IkERHJ3yuvvAJ/f388+eSTsr238ZUrV/DGG29g7NixvRb2ampqsHr1aiQnJ+OBBx4Qy7KRn5+P1157DY899livBaS1a9dCpVJhwYIFsu31vnTpEtavX49JkyYhIyNDLLsdwyQREXmUv/71rzh16hTuu+++XgsYvUGn02H//v346KOP8Mgjj2DGjBniJj1Kq9Vi48aN0Ol0SE9PdzoByFNdu3YNX3zxBY4cOYL58+e7HNfYUzZt2oRz585hzpw5PTYmsy/U19dj3759+OSTTzBv3jzceeed4iYegWGSiIg8zqlTp7Bnzx4UFxdjxIgRiIqK8tieSr1ejx9++AEFBQWYMmUKZs+ejUGDBomb9ZpDhw7hyy+/RF1dHeLj4xEREeGR+6qgoAA/+tGPcOXKFZSXl2PatGm49957XU7I6WknTpzA3r17cfnyZdxyyy244YYbPHI/wXpOlZWV4fvvv8eUKVOQnp6O2NhYcTOPwTBJREQeS6PRoKioCBqNxmPHwwcEBCAmJgYjRoyAUqkUy32mrKwMly5dgkajEUse4bvvvsOECRMwcODAHh8b2RVVVVUoLi5GVVWVR67HCes5FRsbixEjRshiUjHDJBERERFJJqs74BARERGRZ2GYJCIiIiLJGCaJiIiISDKGSSIiIiKSjGGSiIiIiCRjmCQiIiIiyRgmiYiIiEgyhkkiIiIikoxhkoiIiIgkY5gkIiIiIskYJomIiIhIMoZJIiIiIpKMYZKIiIiIJGOYJCIiIiLJGCaJiIiISDKGSSIiIiKSjGGSiIiIiCRjmCQiIiIiyRgmiYiIiEgyhkkiIiIikoxhkoiIiIgkY5gkIiIiIskYJomIiIhIMoZJIiIiIpKMYZKIiIiIJGOYJCIiIiLJ/j9vIhGQJGXgrgAAAABJRU5ErkJggg==;" vertex="1" parent="1">
          <mxGeometry x="-1002.5018181818184" y="73.99640802556803" width="659" height="245" as="geometry" />
        </mxCell>
        <mxCell id="4oO6HebWnoat48gNqgbb-12" value="" style="line;strokeWidth=1;html=1;rounded=0;shadow=0;labelBackgroundColor=none;fillColor=none;fontFamily=Verdana;fontSize=14;fontColor=#000000;align=center;comic=1;strokeColor=#666666;" vertex="1" parent="1">
          <mxGeometry x="-1056" y="335" width="766" height="10" as="geometry" />
        </mxCell>
        <mxCell id="4oO6HebWnoat48gNqgbb-14" value="" style="shape=image;verticalLabelPosition=bottom;labelBackgroundColor=default;verticalAlign=top;aspect=fixed;imageAspect=0;image=data:image/png,iVBORw0KGgoAAAANSUhEUgAAA7YAAAFUCAYAAAAQ6aA4AAAAAXNSR0IArs4c6QAAAARnQU1BAACxjwv8YQUAAAAJcEhZcwAADsMAAA7DAcdvqGQAABs2SURBVHhe7d3bj1xXnejxX1+q+l5tOzgk4GDALY0SHgjhPAQIiUWEzlNM/ocAD+jMw1gjRfkLLCQUHuZoHiD5HxgTjTRCiZpEEBSORCLIjXSQEhkCInZfq3bd93mw2+nevsTddnfVqv35SP3gtXaquzpR2t9ea689lud5HgAAAJCo8eIAAAAApETYAgAAkDRhCwAAQNKELQAAAEkTtgAAACRN2AIAAJA0YQsAAEDShC0AAABJE7YAAAAkTdgCAACQNGELAABA0oQtAAAASRO2AAAAJE3YAgAAkDRhCwAAQNKELQAAAEkTtgAAACRN2AIAAJC0sTzP8+LgoGRZFu12uzgMAADAANVqtRgbGysOD42Bh+2lS5finXfeiUuXLkWWZcVpAAAABmxsbCyOHTsW9957b9x///3F6YEbaNi+88478cc//vHqnyuVSszMzOy6BgAAgMHJ8zw2Nzev/vn48ePxta99LRYXF3ddN0gDC9s///nP8cYbb0RExKlTp2JpaSlqtVrxMgAAAAas3W7HP//5z3j99dej0WjEwsJCfPe7342JiYnipQMxkLBdW1uLX/3qVxER8fDDD8d9991XvAQAAIAh0+l04pVXXomLFy/GqVOn4qGHHipeMhADORX5vffei4iIL33pS6IWAAAgEZVKJR588MGIiHj//fejXq8XLxmIgYTtpUuXIq6ELQAAAOk4duxY3HPPPRERsbq6WpweiEMP206nExsbGxFXviEAAACk5ciRIxFlDttutxsREdPT00P9HCQAAACub3p6OuLKwuUwOPSwBQAAgDtJ2AIAAJA0YQsAAEDShC0AAABJE7YAAAAkTdgCAACQNGELAABA0oQtAAAASRO2AAAAJE3YAgAAkDRhCwAAQNKELQAAAEkTtgAAACRN2AIAAJA0YQsAAEDShC0AAABJE7YAAAAkTdgCAACQNGELAABA0oQtAAAASRO2AAAAJE3YAgAAkDRhCwAAQNKELQAAAEkTtgAAACRN2AIAAJA0YQsAAEDShC0AAABJE7YAAAAkTdgCAACQNGELAABA0oQtAAAASRO2AAAAJE3YAgAAkDRhCwAAQNKELQAAAEkTtgAAACRN2AIAAJA0YQsAAEDShC0AAABJE7YAAAAkTdgCkJ6XzsbS0tKOjzPx/AefTF/4+ZlYeuL5uBAR8cHzcaYwv9Oua/fqmq/jysd+Xw8A2BdhC0BaXjobSz+MeG5lJVa2P362FOceX4qzLxUvjoiTT8X5lfPx1MnixB1y/zOxvPNrWVmOZ+JcnP735eKVAMABEbYAJGX5v89HPHkmTu8c/M6z8dyTEef/+zoxec2K7XKc3bHS++y7uy/fPb8US3sO1BPxv888sHvog+fjzI1WmD94Ps4snY3nf37m+iu+nzYf164c7wz85X9firM/3/78N165BoCUCVsAkrL0Lw9E/OLZawLt9E9WYuUnu3L3Opbj7NL3Y+Xp5curqy9+L1Z+8dY18/GzHauv734/zvx8LxuLL8T/nI945l+vfC0fPB9nHj8XSztf8/634tz/2Rmn5+Pcu2evzD8XZ94+Fz/a9TlvMl9cwX7xmVj54e6APf/jN+PsykqsHOTKNQAMkLAFICknfnA+nnvyrTj3+D5WVV86H+fjTJz9wYnLfz75VPzn05+srl74+bNx/snn4tnvbI+ciKf+7zMRP342bvgZ3j4Xp3etxp6Oc2+/FW++f2X+5FNxfmVl12tes6IbD3wSwnE6zjwZ8da7K7cwfyGe/+n5OPOzZz9ZwT75VPzn0xHn/mPHV1xc4QaAESNsAUjO6Z/sXP2MiF98/5otuNdz4f2ViPu/Eks7xk6c+uRPK+++dfW1rn48fi52rule45p7bFcub4v+afEAqU+2OJ/+8U1fcQ9W4s23I87/cGdY38nXB4A0CFsAEnYinvrl5ZhcfvqB68TkPjz53K5IvfyxY0X0Fpz+12figbf/K/7ng9gRtJ9sgV7esUp8J5y5us15x8enbssGgNEhbAFIyP+LszdYmT1xaini7Tdj5wbeoutdc+H9T/609C8PRLz7/u3HcURELMWpk1e2P19Z1T2/vQX6jlmKr9wfsfL+nfmKASBVwhaAhPyvOPv0A3G+cDjS9r2mDzx99uYrq985G8/cfz6e3T546YPn40c7tu2e+MHZaw5u2s9zbpf/41y8tfO+1p0x/dLZO7hV+EQ89W9n4q0f/2jH9+NCPP/E0h4PvAKAtAlbAJJy4gfnrz63dueBTW/+262siJ6Ip375XCz9+PSV+2ffjO/t2hZ8Op598ZmI7fmlpTh9/nux/Mun4oavfM3hUUvx/XefieXtrcDfeTaee/J8fH97/qdfieWfnYm4ulX5Nn3n2Vh+OnZ8P07Hf51ZvoXvBQCMjrE8z/Pi4EHKsixeeOGFmJ6ejieeeKI4DQAAwJB777334vXXX49Tp07FQw89VJw+dFZsAQAASJqwBQAAIGnCFgAAgKQJWwAAAJImbAEAAEiasAUAACBpwhYAAICkCVsAAACSJmwBAABImrAFAAAgacIWAACApAlbAAAAkiZsAQAASJqwBQAAIGnCFgAAgKQJWwAAAJImbAEAAEiasAUAACBpwhYAAICkCVsAAACSJmwBAABImrAFAAAgacIWAACApAlbAAAAkiZsAQAASJqwBQAAIGnCFgAAgKQJWwAAAJImbAGAfev1etHpdKLZbEa9Xo+tra1YX1+Pzc3NaDQa0Wq1ot1uR6/XizzPi/84ANwRwhYAuGW9Xi+azWasr6/Hxx9/HKurq7G+vh5bW1uRZVk0m83odDrRarWi0WjE5uZmbGxsxOrqaly8eDHW19cjy7Lo9XrFlwaAfRO2AMBNdbvdaDQasb6+Hqurq7G1tRWdTqd42S3pdDpRr9djdXU11tbWol6vR7vdLl4GAHsibAGA6+r3+1Gv12NtbS0ajca+Y/ZGut1uZFkWGxsbsbGxIXAB2DdhCwDskud5ZFkWa2trkWVZcfpAtNttgQvAvglbAOCqVqsV6+vrUa/Xo9/vF6cP3M7A7Xa7xWkAuC5hCwBERESz2YzNzc2hCMp2ux3r6+vRbDaLUwBwDWELAESz2Yytra3i8EDleR5bW1tRr9eLUwCwi7AFgJLb2toauqjdKcuy2NzcLA4DwFXCFgBKLJXtvtv3/gLA9QhbACipg3iEz0HqdDpJRDgAh0/YAkAJdTqdaDQaxeGht7W1lVSMA3A4hC0AlMz2oUyp2tjYGMijiAAYXsIWAEqmXq9Hr9crDicjz3OHSQGwi7AFgBJpt9sjcZ9qp9PxGCAArhK2AFAioxC127Isi263WxwGoISELQCURKvVina7XRxOWpZlxSEASkjYAkBJjNJq7bZRjHUA9k7YAkAJNJvNkX1MjlVbAIQtAJRAq9UqDo2MTqcz0u8PgE8nbAFgxHW73ZFdrd1mOzJAuQlbABhxox61UZL3CMCNCVsAGHFliL5+v1+K9wnA9QlbABhheZ6XZptuWd4nANcStgAwwsoUe2V6rwDsJmwBYIR1u93i0Mjq9XqR53lxGIASELYAJK/X60W/3y8Oc2Urcpn0er3iEAAlIGwBSE6r1Yp6vR7r6+tx8eLFWF1djUuXLsXFixdjY2Mj6vV6tNvt0kXd9ZQt9Mr2fgG4TNgCkIxmsxlra2uxubkZWZZFp9PZFa/bByVlWRYbGxuxtrYWWZaVejW3bHFf5n/XAGUmbAEYettBu7W1tad7Rnu9XtTr9VhbW4tGo1HK6BG2AJSBsAVgaOV5Hpubm3sO2qJ+vx+NRiPW19dv63VSVLbQK9v7BeAyYQvAUNqO2larVZzat16vFxsbG9HpdIpTjIiyrVADcJmwBWDo9Pv92NjYOJDnkm6/dlnidmxsrDg00iYmJopDAJSAsAVgqBzGqmqe57G+vn4g4TxsxsfL9aO+bO8XgMv83x+AoXK799Puxebm5qF9rkEpW+hZsQUop3L9tANgqNXr9QNdqS3K8zzq9XpxeKSULWzLtvUagMvK9dMOgKHVarUiy7Li8IHrdDojHbdlC1srtgDlVK6fdgAMpe3nzQ5KlmV39PTlYVKpVIpDI2t8fLx0IQ/AZf7vD8DA1ev1gT9/tNFoRK/XKw4nr1KplGZ7bpkiHoDdhC0AA1Wv14fidOJerxeNRqM4PBKmpqaKQyOpWq0WhwAoCWELwMB0u91oNpvF4YFptVojuSW5DME3NjZWivcJwPUJWwAGJsuyyPO8ODxQwxTad0oZtiNXq9WRf48A3JiwBWAg2u32UK6OdjqdgZzOfJDGxsZGfjuy+2sByk3YAjAQw3w/a7PZHLqV5Ns1PT1dHBoZ4+PjIx/uANycsAXg0GVZFt1utzg8NHq93sit2k5OTsbMzExxeCTMzs7ahgxQcsIWgEOVSjQ2m82Re/zP9PT0yAVgpVIZ6dVoAG6NsAXgUDWbzYE/s/ZW9Pv9JAJ8LyYmJkZu1XbU3g8A+yNsATg0qR3M1Gw2h3rL9H5MT0/H+Pho/PifmpryiB8AIoQtAIcppajdNmqP/xkfH4/5+fnicHLGx8djdna2OAxASQlbAA5Fs9mMdrtdHB56qX7dN1OtVpOPwoWFhZiYmCgOA1BSwhaAA5fnedIrnyl/7TcyOzub7DbeWq3mubUA7CJsAThwjUYj6XtV2+12tFqt4nDy5ubmkrvfNuUgB+DgpPXTbEjleR4ff/xxcRiAiOh2uyOx4jkK76FoYmIi5ufnk3kE0ChsoQbKrdPpxOrqanGYO0DY3qZ+vx+vvvpqLC8vx4cfflicBii9LMsiz/PicHI6nU40Go3icPKq1WrUarWhX7mdmpqKWq1WHAZIRrvdjuXl5VheXo5Lly4Vp7lNw/1TbMj1+/347W9/G3/9618jrqzcAvCJUdvCm2VZ0luqb6RSqcTCwsLQxu3MzEwsLCwUhwGS1O1249e//nVcvHixOMVtGM6fYAnI8zxeffXV+Oijj2JsbCy+9a1vxcmTJ4uXAZTaqK1w5nk+cu9pW6VSiVqtNlQnDY+NjcX8/HzMzc0VpwCSU61W4/Tp03Hs2LHodrvx8ssvx9raWvEy9knY7kOe5/G73/0u/va3v0VExMMPPxz33ntv8TKAUhvV1c12u33bz+Pt9/vRarWi0WjE1tZWrK+vx9bW1sAfLTQ5ORm1Wi2mpqaKU4euWq3G4uJiTE9PF6cAklWpVOLRRx+NhYWFqyu3GxsbxcvYB2G7R9tRe+HChYiI+PrXvx4nTpwoXgZQar1e77bjb5jt977hbrcbjUYj1tbWYnNzMxqNRjSbzeh0OtFsNmNrays2NjZidXU16vV69Pv94kscuImJiVhYWIiFhYWYnJwsTh+47W3RtVptIJ8f4KBtx+3s7OzV+27F7e0Ttnuwvf34woULMTY2Fg8//HB8+ctfLl4GUHrNZnMgUXZY+v1+1Ov14vBNbQdto9H41O/N9i8GtgN3EKampmJxcTFmZmYO5dTk8fHxmJ+fj8XFxaFYMQY4SLOzs/H4449HrVaLVqsVy8vLsb6+XryMPRC2e7T9wz3P8+j1esVpgNK7E1t1U7C90nor6vX6vu7NzfM8siyLzc3N4tShGBsbi7m5uVhcXIzZ2dkDuf+2UqnEzMxMHD161LZjoHS226LX643k7TuHSdjuwfYq7ec///mIiPj9738fKysrxcsASm0Un/d6I1tbW8Wha6ytrd126LdarYH+Jn9ycjJmZ2fj6NGjV+97vZ0TlKvVaszPz199vbm5uUNZFQYYFo1GI1588cVYX1+PSqUSp0+fjrvuuqt4GXuw/59KJTU2Nhbf+MY34nOf+1xERPzhD3/w/FqAKwZ9+NFh6/V6N90qfOnSpTv2G/hOp3NLIX3QKpVKzM/Px7Fjx2JxcTEWFhZifn4+ZmZmYnp6OqampqJSqUS1Wo2ZmZmYnZ2Nubm5q/fN3nXXXVGr1WJ6evpAVoABhl273Y6XX345Go3G1ag9evRo8TL2SNjuw3bc3nPPPRER8dprr8VHH31UvAygVEb5UTg3k2XZde+Z3drauu747Ri2XxxUKpWYmpqK6enpmJubi/n5+VhYWIjFxcWo1WoxNzcXs7OzMTMzE1NTU1GtVq3MAqXW6XTi5Zdfjs3NzZiYmIhHH300jhw5UryMfRC2+zQ+Ph7f/OY34/jx45HnefzmN7+xcguU2q0cijSqivfAttvtA9uSvbGxUdrvM0DKms1mvPTSS7G6uhqTk5Px6KOPxrFjx4qXsU/C9jZMTEzEt7/97bj77rsjz/N9PfoBYBR0u93bvo80ZZ1OZ9dK6kE/tmEYtiQDsDfj4+MxPj5+NWo/85nPFC/hNgjb2zQxMRGPPPJIPPbYY3Hy5MniNEAplDlqt21ubkar1YqPP/64OHXHtdvtUm77BkhZtVqNxx57LB555BEHRR0AYXsHTExMxN13310cBiiFdrsdrVarOFw6eZ5fsyX5IDUajTt2MBUAh6Narcbx48eLw9wBwhaAfSvrgVHDwvceAC4TtgDsW5ZlVg0HqN1u2wYOAMIWgP3q9XoHdvIvt86WZAAQtgDsU5kf7zNM8jy3agtA6QlbAPbMgVHDpdVqWT0HoNSELQB7ZoVw+NTr9ej1esVhACgFYQvAnjSbzeh0OsVhBswJ1QCUmbAF4Jb1+33xNMRarZYt4gCUkrAF4JZlWebAqCFXr9f9OwKgdIQtALek0+m4tzYB/X4/6vV6cRgARpqwBeCWOHU3HbYkA1A2whaATyWU0tNoNCLP8+IwAIwkYQvATeV5bgtygnq9ni3JAJSGsAXgprIsi263WxwmAc1m00o7AKUgbAG4oV6v597axGVZZksyACNP2AJwQ41Gw6NjEtftdj17GICRJ2wBuK52u20b64jIsiza7XZxGABGhrAF4LocGDVarNoCMMqELQDXaDab0el0isMkzJZkAEaZsAVgl36/L4BGVKPR8AsLAEaSsAVglyzLHBg1wmwxB2AUCVsArup0OsJnxLXbbY9wAmDkCFsArhI85dBsNj3bFoCRImwBiLgSOx7vUw7dbtfKPAAjRdgCEHmeC52SaTQa0e12i8MAkCRhC0BkWRa9Xq84zIhz+jUAo0LYApRcr9cTOCXlICkARoWwBSg5UVtuWZY5SAqA5AlbgBJrtVoOjCq5Xq/n/moAkidsAUrMNlTiyqqtg6QASJmwBSipLMui0+kUhykhp2IDkDphC1BCtp9S1Gq1rOADkCxhC1BCWZZFv98vDlNy/rsAIFXCFqBkut2ulTmuq9fr+W8DgCQJW4CSES7cjIOkAEiRsAUoEau1fBoHSQGQImELUCKillvh+cYApEbYApSE1Vr2otFoRJ7nxWEAGErCFqAkRC174ZFQAKRE2AKURKfTKQ7BTTlICoBUCFuAEuj1etHr9YrDcFMOkgIgFcIWoASsurFfrVYr2u12cRgAhoqwBSgB25C5HcIWgGEnbAFKwIott6PZbNrKDsBQE7YAJSBsuV1O1QZgmAlbgBKYmJgoDsGetFotz7UFYGgJW4ASGBsbKw7BnvT7ffdqAzC0hC1ACVix5U4QtgAMK2ELUAJWbLkTHCAFwLAStgAlMDk5WRyCPbNiC8CwErYAJTA9PW3VFgAYWcIWoCSmp6eLQ7An4+P+2gDAcPITCqAkqtVqcQj2xKo/AMNK2AKURKVSca8tt8Xp2gAMK2ELUCLz8/O2k7JvU1NTxSEAGAr+dgNQIpOTk7GwsCBu2bNKpWI7OwBDy99sAEqmUqnE/Px8cRhuyuFjAAwzYQtQQtVqNWq1mhU4bsnc3JxtyAAMNWELUFLbcTs/P+9QIG5obm4uZmZmisMAMFSELUDJTU9Px5EjR2J2dlbgclW1Wo3FxUVRC0AShC0AMTY2FrOzs3H06NFYXFyM2dlZjwYqobGxsahWqzE/Px+1Wi0qlUrxEgAYSsIWgF0qlUrMzs7GkSNH4ujRo1e3ok5NTUW1Wo1KpRITExNOVk7Y+Ph4jI+Px+TkZExOTsbMzEzUarU4duxY1Go1B0UBkJyxPM/z4uBByrIsXnjhhZieno4nnniiOA0AAMCQe++99+L111+PU6dOxUMPPVScPnR+3Q4AAEDShC0AAABJE7YAAAAkTdgCAACQNGELAABA0oQtAAAASRO2AAAAJE3YAgAAkDRhCwAAQNKELQAAAEkTtgAAACRN2AIAAJA0YQsAAEDShC0AAABJE7YAAAAkTdgCAACQNGELAABA0oQtAAAASRO2AAAAJE3YAgAAkDRhCwAAQNKELQAAAEkTtgAAACRN2AIAAJA0YQsAAEDShC0AAABJE7YAAAAkTdgCAACQNGELAABA0oQtAAAASRO2AAAAJE3YAgAAkDRhCwAAQNKELQAAAEkTtgAAACRN2AIAAJA0YQsAAEDShC0AAABJE7YAAAAkTdgCAACQNGELAABA0oQtAAAASRO2AAAAJE3YAgAAkDRhCwAAQNKELQAAAEkTtgAAACRN2AIAAJA0YQsAAEDShC0AAABJE7YAAAAkTdgCAACQNGELAABA0oQtAAAASRO2AAAAJE3YAgAAkDRhCwAAQNKELQAAAEkTtgAAACRN2AIAAJA0YQsAAEDShC0AAABJE7YAAAAkTdgCAACQNGELAABA0oQtAAAASRO2AAAAJE3YAgAAkDRhCwAAQNKELQAAAEkTtgAAACRN2AIAAJA0YQsAAEDShC0AAABJE7YAAAAkTdgCAACQNGELAABA0oQtAAAASRO2AAAAJE3YAgAAkLSBhW2v1ysOAQAAkIBh67lDD9uZmZmYmZmJTqcTm5ubxWkAAACG3OrqakREHD16tDg1EIcetrHjzf/9738vTgEAADDEut2usI2IuO+++yIi4vXXX4+1tbXiNAAAAEPqjTfeiHq9HsePH48jR44UpwdiIGH7hS98Ib74xS9GRMQrr7wSH374YfESAAAAhki73Y7XXnst/vKXv0RExFe/+tXiJQMzlud5Xhw8DJ1OJ1599dX4xz/+ERER8/PzcfTo0ZidnS1eCgAAwIDkeR6XLl2KtbW16Ha7MTY2Fg8++GAsLS0VLx2YgYXttnfffTf+9Kc/Rb/fL04BAAAwRD772c/Ggw8+GLVarTg1UAMP222rq6uxuroarVarOAUAAMAAHTlyJI4cORIzMzPFqaEwNGELAAAA+zGQw6MAAADgThG2AAAAJE3YAgAAkDRhCwAAQNKELQAAAEkTtgAAACRN2AIAAJA0YQsAAEDShC0AAABJE7YAAAAkTdgCAACQNGELAABA0oQtAAAASfv/hebttBeOKzcAAAAASUVORK5CYII=;" vertex="1" parent="1">
          <mxGeometry x="-980" y="360" width="628.65" height="224.99" as="geometry" />
        </mxCell>
        <mxCell id="4oO6HebWnoat48gNqgbb-15" value="" style="line;strokeWidth=1;html=1;rounded=0;shadow=0;labelBackgroundColor=none;fillColor=none;fontFamily=Verdana;fontSize=14;fontColor=#000000;align=center;comic=1;strokeColor=#666666;" vertex="1" parent="1">
          <mxGeometry x="-1060" y="600" width="766" height="10" as="geometry" />
        </mxCell>
        <mxCell id="4oO6HebWnoat48gNqgbb-16" value="" style="line;strokeWidth=1;html=1;rounded=0;shadow=0;labelBackgroundColor=none;fillColor=none;fontFamily=Verdana;fontSize=14;fontColor=#000000;align=center;comic=1;strokeColor=#666666;" vertex="1" parent="1">
          <mxGeometry x="-1060" y="846" width="766" height="10" as="geometry" />
        </mxCell>
        <mxCell id="4oO6HebWnoat48gNqgbb-17" value="Pemerintah" style="text;html=1;align=center;verticalAlign=middle;whiteSpace=wrap;rounded=0;fontSize=11;" vertex="1" parent="1">
          <mxGeometry x="-762" y="29" width="60" height="30" as="geometry" />
        </mxCell>
        <mxCell id="4oO6HebWnoat48gNqgbb-18" value="Layanan" style="text;html=1;align=center;verticalAlign=middle;whiteSpace=wrap;rounded=0;fontSize=11;" vertex="1" parent="1">
          <mxGeometry x="-671" y="29" width="60" height="30" as="geometry" />
        </mxCell>
        <mxCell id="4oO6HebWnoat48gNqgbb-19" value="Pariwisata" style="text;html=1;align=center;verticalAlign=middle;whiteSpace=wrap;rounded=0;fontSize=11;" vertex="1" parent="1">
          <mxGeometry x="-591" y="29" width="88" height="30" as="geometry" />
        </mxCell>
        <mxCell id="4oO6HebWnoat48gNqgbb-20" value="" style="sketch=0;pointerEvents=1;shadow=0;dashed=0;html=1;strokeColor=none;fillColor=#505050;labelPosition=center;verticalLabelPosition=bottom;verticalAlign=top;outlineConnect=0;align=center;shape=mxgraph.office.concepts.search;rotation=-90;" vertex="1" parent="1">
          <mxGeometry x="-405" y="36" width="17" height="17" as="geometry" />
        </mxCell>
        <mxCell id="4oO6HebWnoat48gNqgbb-21" value="" style="ellipse;whiteSpace=wrap;html=1;aspect=fixed;" vertex="1" parent="1">
          <mxGeometry x="-860" y="645" width="45" height="45" as="geometry" />
        </mxCell>
        <mxCell id="4oO6HebWnoat48gNqgbb-22" value="Menu Page" style="text;html=1;align=center;verticalAlign=middle;whiteSpace=wrap;rounded=0;" vertex="1" parent="1">
          <mxGeometry x="-884.5" y="690" width="94" height="30" as="geometry" />
        </mxCell>
        <mxCell id="4oO6HebWnoat48gNqgbb-23" value="" style="ellipse;whiteSpace=wrap;html=1;aspect=fixed;" vertex="1" parent="1">
          <mxGeometry x="-745.5" y="645" width="45" height="45" as="geometry" />
        </mxCell>
        <mxCell id="4oO6HebWnoat48gNqgbb-24" value="Menu Page" style="text;html=1;align=center;verticalAlign=middle;whiteSpace=wrap;rounded=0;" vertex="1" parent="1">
          <mxGeometry x="-770" y="690" width="94" height="30" as="geometry" />
        </mxCell>
        <mxCell id="4oO6HebWnoat48gNqgbb-25" value="" style="ellipse;whiteSpace=wrap;html=1;aspect=fixed;" vertex="1" parent="1">
          <mxGeometry x="-624.5" y="645" width="45" height="45" as="geometry" />
        </mxCell>
        <mxCell id="4oO6HebWnoat48gNqgbb-26" value="Menu Page" style="text;html=1;align=center;verticalAlign=middle;whiteSpace=wrap;rounded=0;" vertex="1" parent="1">
          <mxGeometry x="-649" y="690" width="94" height="30" as="geometry" />
        </mxCell>
        <mxCell id="4oO6HebWnoat48gNqgbb-27" value="" style="ellipse;whiteSpace=wrap;html=1;aspect=fixed;" vertex="1" parent="1">
          <mxGeometry x="-508.5" y="645" width="45" height="45" as="geometry" />
        </mxCell>
        <mxCell id="4oO6HebWnoat48gNqgbb-28" value="Menu Page" style="text;html=1;align=center;verticalAlign=middle;whiteSpace=wrap;rounded=0;" vertex="1" parent="1">
          <mxGeometry x="-533" y="690" width="94" height="30" as="geometry" />
        </mxCell>
        <mxCell id="4oO6HebWnoat48gNqgbb-46" value="" style="ellipse;whiteSpace=wrap;html=1;aspect=fixed;" vertex="1" parent="1">
          <mxGeometry x="-860" y="737" width="45" height="45" as="geometry" />
        </mxCell>
        <mxCell id="4oO6HebWnoat48gNqgbb-47" value="Menu Page" style="text;html=1;align=center;verticalAlign=middle;whiteSpace=wrap;rounded=0;" vertex="1" parent="1">
          <mxGeometry x="-884.5" y="782" width="94" height="30" as="geometry" />
        </mxCell>
        <mxCell id="4oO6HebWnoat48gNqgbb-48" value="" style="ellipse;whiteSpace=wrap;html=1;aspect=fixed;" vertex="1" parent="1">
          <mxGeometry x="-745.5" y="737" width="45" height="45" as="geometry" />
        </mxCell>
        <mxCell id="4oO6HebWnoat48gNqgbb-49" value="Menu Page" style="text;html=1;align=center;verticalAlign=middle;whiteSpace=wrap;rounded=0;" vertex="1" parent="1">
          <mxGeometry x="-770" y="782" width="94" height="30" as="geometry" />
        </mxCell>
        <mxCell id="4oO6HebWnoat48gNqgbb-50" value="" style="ellipse;whiteSpace=wrap;html=1;aspect=fixed;" vertex="1" parent="1">
          <mxGeometry x="-624.5" y="737" width="45" height="45" as="geometry" />
        </mxCell>
        <mxCell id="4oO6HebWnoat48gNqgbb-51" value="Menu Page" style="text;html=1;align=center;verticalAlign=middle;whiteSpace=wrap;rounded=0;" vertex="1" parent="1">
          <mxGeometry x="-649" y="782" width="94" height="30" as="geometry" />
        </mxCell>
        <mxCell id="4oO6HebWnoat48gNqgbb-54" value="&lt;b&gt;&lt;font&gt;Informasi Terbaru&lt;/font&gt;&lt;/b&gt;" style="text;html=1;align=center;verticalAlign=middle;whiteSpace=wrap;rounded=0;fontSize=21;" vertex="1" parent="1">
          <mxGeometry x="-782.5" y="876" width="212" height="31" as="geometry" />
        </mxCell>
        <mxCell id="4oO6HebWnoat48gNqgbb-55" value="" style="line;strokeWidth=1;html=1;rounded=0;shadow=0;labelBackgroundColor=none;fillColor=none;fontFamily=Verdana;fontSize=14;fontColor=#000000;align=center;comic=1;strokeColor=#999999;" vertex="1" parent="1">
          <mxGeometry x="-962" y="1296" width="593" height="10" as="geometry" />
        </mxCell>
        <mxCell id="4oO6HebWnoat48gNqgbb-56" value="&lt;b&gt;&lt;font&gt;Berita OPD &amp;amp; Pengumuman&lt;/font&gt;&lt;/b&gt;" style="text;html=1;align=center;verticalAlign=middle;whiteSpace=wrap;rounded=0;fontSize=21;" vertex="1" parent="1">
          <mxGeometry x="-846.0000000000001" y="1333" width="339" height="31" as="geometry" />
        </mxCell>
        <mxCell id="4oO6HebWnoat48gNqgbb-57" value="" style="shape=image;verticalLabelPosition=bottom;labelBackgroundColor=default;verticalAlign=top;aspect=fixed;imageAspect=0;image=data:image/png,iVBORw0KGgoAAAANSUhEUgAAATcAAAEcCAYAAACiSfPHAAAAAXNSR0IArs4c6QAAAARnQU1BAACxjwv8YQUAAAAJcEhZcwAADsMAAA7DAcdvqGQAACquSURBVHhe7d37U1tnegfwL7ojIUASkrmYO1jhYhsnTu3dZFvvOh3X2aTttrPpNJ3pTmd/6n/h/6Gzne7suFPvTHZ2492QmC6us3EMXhIg2BibiwGLq4QACd3v0pHoD4ANL2CQkA46h+cz4xnreQ+SjOGr95zzXgrW19fXQQghIiNhC4QQIgYUboQQUaJwI4SIEoUbIUSUKNwIIaJE4UYIEaUCGgoiPn6/H+FwGMlkkm3KC1KpFIWFhSgpKWGbCMmaXeHmcDi2PyRZolKpUFxczJazZn19HTMzM7DZbJDL5dBoNJBKpexheSGZTCIcDiMajeL06dOor6+HXC5nDyPkSPYMt3z9xBcyjUaTs3DzeDwYGxuDXq9HbW0tioqK2EPyUjgcxsLCAlZWVtDe3g6j0cgeQkjGKNx4kqtwc7lcePz4Mc6ePYuKigq2WRCcTidGRkZw9uxZlJeXs82EZIRuKAhYNBrF6Ogozp8/L9hgAwCj0Yi33noLo6OjCAaDbDMhGaFwEzCLxYKqqiqcOnWKbRIcvV6P5uZmTE9Ps02EZITCTaBisRhWVlbQ2NjINglWXV0dAoEA/H4/20RI2ijcBMrpdOLUqVOQSNL5L3Si77M+OAEAHBa/vIlfD3rYg4DwLGZX2WL6nH/uRN/Gix1aeXk51tbW2DIhaUvnN4PkkUAgkNENikgoshFs/3cTdwuv418v6QAAXCCAgC8KDgA3+gAPZjf+jhSHgC+AKLf5BJuPOY5DNL5R4sKvvhYpDtE4h6gvCt2l67hs2HrlwykuLkYgEGDLhKRNeuPGjRvbC6FQCDSuN/sUCgWUSiVbztjKygq0Wi20Wi3b9BphzD6bR2z5Hr6W/BP+/UcbdyYXu3+BLrsKkrUe/H5YibrkC4z5ymGus6PrV1/Dr+Yw3P0QXEs5Rv+nEzZVCmPdt/DQ24pzkS/wq54gVNwwvrjrQXP1C/z6l/1Yjawjae3BmPY8GtMYmRKPx+FyuVBZWck2EZIW6rkJlEQiAcdtdafS4BzBhOFdGMfu4ml4o1Rz5SNcqgS4WALRUAyVlVpoGxqgm36MRV0NiiBDg8mDvt7vsFzzHv76rcv4yRUzAGDqCYdL/3wFF7/3Ed7Tj+ORB1C9cQU/+eAiMrl/y3Fc3g4+JsJC4SZQGo0ms2ETxsu4/vZFfPSPOjy4/QhRBNB3+w6cOjM6rpzHjv6SRAZtuRnmJjPMF97D9RYFEvHNQI1GkQAgkyTAbZ6eRiNAoRyQqwq3P0taQqEQ1Go1WyYkbRRuAqXT6eByudjy4dV+iI8q+vBfX7qgU0SxaBnHgz88hiMeQECthaOnE+NVV9Aw+ym+GhxA5x8fI2D6AS7Gu/DLW7/Bza8XAAnQ9qMajP93J7o++wUeyC7jYhqnoHtxOp3Q6/VsmZC00QwFnuRihsLQ0BCqqqr4uz4Vn0XPoAxXflCDaP9NfKb9OT5uZw/KnNPpxPT0NN555x22iZC0Uc9NwBobGzE5OYlIJMI25YaiAefVT/Hp7z/F3egP8Q9ZDDaO4zA5OYmmpia2iZCMUM+NJ7nouQHA/Pw87HY7Ojo6BHutKpFIYGRkBKWlpWhubmabCckI9dwErq6uDpWVlRgcHITdbmeb897q6ioGBgYo2EjWUc+NJ7nquW1xu92wWCyIxWIwmUzQaDSQyWTsYXkhmUwiFAq9vCHS2NgIk8nEHkbIkVC48STX4bbF6/XC7XYjHA5jfX0dqVSKPeTYSaVSqNVq6HQ66HQbMyQIyTYKN57wFW6EkA10zY0QIkonqufm9XoRDocRDodfblJSVFTEy7Lc1HMjhF8nItzC4TDm5uYQjUbZJgBAaWkpampqcrpJCYUbIfwS/WlpMBjE8+fP9w02bPbonj9/jkQiwTYRQgRK9OE2Pz/PlvaUSCQwNzfHlgkhAiXqcFtZWUEsFmPL+woEAvB49liZlhAiOKK+5jY5OYlQKMSWX0un06GhoYEtH1kur7mtr6/n9Q7zhByWRCKBWq1Oc/n8veVluMViMfh8PshkMpSUlGS8eOHIyEja/xaFQoGzZ8+y5SPLVbitra3B6UxzowJC8pzBYDjyrJWjx2OW2Ww2jI2NwWq1Ym5uDqOjo/D5fOxhh5JusGFzmWuhcLvdFGxElFwu15F/tvMq3JaWlrC6unPbpWQyCYvFktF2bwqFgi0dKJfDQbLN4XCwJUJE46i7oOVNuHk8HqysrLDll2ZmZtIeqpHJ4FyNRsOW8lIikaCNfIjoHWWtwrwIt1QqBavVypZ3SKVSWFpaYsuvVVZWxpYOZDQa2VJeElIPk5BMHWXHuLwIt+Xl5UP1ylwuF8LhzS2bDkGr1aZ1Eb+kpCSt44+bwZDmpqCECEhpaemR7ppm/pVZEovFXns6yjqoh8eqra091LU3jUaD+vp6tpzXTCZTmvuWEiIMGo3myGdRxz4UxGKxpH03tL6+/uUOSQ6HA16vFxKJBFVVVSgs3L2tXDKZhM1m2/MCZUFBAQwGA6qrq4/0KXGQXA0FweZ1CdpMm4hBQUEBCgsLs3Lt+1jDze/348WLF2z5QHK5HO3t7VhYWIDb7d7RZjab972REI1G4fV6X4aAXC6HTqfLeBxdOnIZboSQ3Y413MbHx187of11ioqK9tyUWKlUor09i9syZQmFGyH8yt152AEcDkfGwYbN1T72EovFsLy8zJYJISfMsYQbx3E53anJbrcfKTgJIcJ3LOFmt9tzfup72KWOCCHixHu4RaPRI88ZO4xQKETTkwg5wXgPt4WFBbaUM0tLS4caHEwIER9ew83tdu97IyAXUqkUbDYbWyaEnAC8DQVZX1/H6OjosfSkXjf2jS+5Ggri8/ng9XoRjUYPtQFzLgcqk/x3mJ8RmUwGtVoNg8EAlUrFNgsGb+G2urp6bL2owsJCtLa2smVe5SLcDlpJhZCjkEqlqKurO9T0xXzE28c4u04bnyKRiChvLrhcLrZESNYkk0l4vV62LBi8hFskEjmW09HtlpaWwHEcWxasRCJx7N9TIn7prMKTb3gJt3z4JUylUqLa2Uomk6GgoIAtE5JVQj0lBV/hlo0Z/tkgplkLBQUFKC0tZcuEZFVJSQlbEgxewk0qlaKqqoot8+6475hmW3l5OQUcyQmpVIqKioq86Zhkgre7pQDg9XrhdDoz2uzlKORyOSorKzNadjxbcnG3dAvHcWltPk3I60gkkj3XRRQaXsPtJMtluBFCduPltJQQQvhG4UYIESUKN0KIKFG4EUJEicKNECJKFG6EEFGicCOEiBKFGyFElCjcRCAYDGJ4eHhHzePxYHR0dEeNkJOEZijwJFczFGw2GyYnJxEIBKDT6V7W4/E4IpEITCYTLl26RCvwkhNHeuPGjRvbC6FQCEzekSxQKBRQKpVs+cgmJiawurqKVCqFcDj88k8sFkMymYTf70d1dfXO5aLX3ej77AuMOVyY/HYITmMbag5YU8DZP4Cl6tMwsA2MlW9u4+70GmyPpxCub8IpOQB7L2498KPDfOrlcc86/wP/u1SFNxuKAUyj+z//F/bqDtQd8D62+Ed68Uxah6rNed2x5934Xb8dnudPYCtuQU2gD533x2AZnUWsvgmlFqZdu4L7v/sC47MLmPZoYD6d/Q8ecrwo3HiSq3DbWrq9uLgYGo1m1594PI76+vqd4eafwuByDa5ffQutzQakInKUShcwcK8X/ZYgDI1VSE0MYWBqGEMD85A3NKE04kfKZIR/tBdPhocwNB6G4UwVinYsKRdDMGlCx1vtMHOj+C7YArNhBb3frUJeqEFz3atwW52cg68ggtLmBhRPPsKIRwJNfQtMqwP4U28/RubCMDRWwTvWi/5vRxHQybDQs/X+dFgaeIjnvhI01eshB+APytF8uQMtxXY8tmghXbSg+Mcf4C/1C/h2TItKQ+mO9hbTIiZXa9De2oSOtkrIaGk80aFzFRFob2/HhQsX8P3vfx8dHR1455130NHRgXfffRdarZY9HCjpwLUzDnz521u42TkEv1KJia+Gge9dxbUWP/ofriDstAHNH+Knl4G5GSDsdMINwD3nhu7aT/G3p92Y2rVyuxLl9eVQhqfRPavH22Zg/uFT6L7fht0L5yjRaIphygpM21WoqwSAJEKS03j3/Wu4qt94fvecGxV/9yGU321/f36YdHqcbm2EevPZ9PV10KdWMDAYQ+NFI6IxbuOn26hHcSq5qx1xDTRFMmjk87jTOQB+16khfKBwE7itXrbP50M8HofP50MikYDH40Eikdi7F+4Yx4T0XXz48c/w878vx8Q3E+AkSYSsM5jxFeN0uQKAHrpyAEoVdux/VKyHSQIolfvsiuQaQtc9B8598Fcol0xjYm4Fo5/fw5RlCPctOw9VthkRm+yFVVKLagBACPMjfeh/ZoNna/Hmzdfb/f4Y4Rnc/2IYxVffxzk1IJPKNuouP8IS6a52pNSobT0D4+nLMCvdoG12xIfC7SQyViD26BN03ulC550Z6N5oRFOtBu5lDqHFaTjXd/ez9uPs78aAc+uRDfc/fwJ/gQdP7nZhwHoG7//bz/AvH1+DueltXG3a+bUoPAej1wI01r0sJSGFSu6HxboA/7ZV4dn3V25QYv7JxGaPK4Ynf7yHeS6JmZ4u3B/3o/UNBabuDqG33w3j2eJd7VD6MdFzH0PfdGNG9ybOvHopIhJ0t5Qnubpb2t/fj5qaGhQVFaGwsBDhcBgajQahUAhFRUXo6enB22+/nbPlomOTz7BQew5nhL+2IREZCjee5CrcxsbGsLS0tO/NilAohPfee2/fdkLEisKNJ7kKN0LI3uiaGyFElHb13PJhj1GxksvlbIkQkiO7wo0QQsSATksJIaJE4UYIESUKN0KIKFG4EUJEicKNECJKFG6EEFGicCOEiBKFGyFElCjcCCGiROFGCBElCjdCiCjtmltqsVho8nyW7bmPARG9QCDAlsgRGI1GlJWVseV97Qo3QggRAzotJYSIEoUbIUSUKNwIIaJE4UYIESUKN0KIKFG4EUJEicKNECJKFG6EEFGicCOEiBKFGyFElCjcCCGiROFGCBElmjgvUrFYDPn6X1tQUAClUsmWCcmqXeHm8/m2PyRZUlBQgOLiYracVWtra7Db7VhbWwM2l4hxu93sYceqqKgIfr8fqVQKer0eVVVVMJlM7GGEHNmucHM4HEgmk9tLJAs0Gk3Owo3jOExMTCAQCKCmpgYmkynve0aJRAIOhwNWqxVKpRItLS1QqVTsYYRkjMKNJ7kKt1gshuHhYej1epjNZrZZEGZmZrC0tIQ333wTRUVFbDMhGaEbCgL39OlTmEwmwQYbADQ2NqKurg7Pnj1DKpVimwnJCIWbgFksFqhUKjQ2NrJNglNTU4PS0lJMTU2xTYRkhMJNoFKpFBYWFkQRbFvOnDkDm82GaDTKNhGSNgo3gXI4HCgtLYVGo2GbXsOJvs/64AQAcFj88iZ+PehhDwLCs5hdZYvpc/65E30bL3YoMpkMFRUVcDgcbBMhaaNwEyifzwe9Xs+WDxQJRTaC7f9u4m7hdfzrJR0AgAsEEPBFwQHgRh/gwezG35HiEPAFEOU2n2DzMcdxiMY3Slz41dcixSEa5xD1RaG7dB2XDVuvfDilpaXw+/1smZC0SW/cuHFjeyEUCuXt4E8hUygUWR2esby8jKKiojTvwIYx+2weseV7+FryT/j3H5UDABa7f4EuuwqStR78fliJuuQLjPnKYa6zo+tXX8Ov5jDc/RBcSzlG/6cTNlUKY9238NDbinORL/CrniBU3DC+uOtBc/UL/PqX/ViNrCNp7cGY9jwa07gBGo/H4XK5UFlZyTYRkhbquQlUQUEBWzoc5wgmDO/COHYXT8MbpZorH+FSJcDFEoiGYqis1ELb0ADd9GMs6mpQBBkaTB709X6H5Zr38NdvXcZPrmzcnZ16wuHSP1/Bxe99hPf043jkAVRvXMFPPriIip2vfCjr6+uZ/9sI2YbCTaBUKhXC4c10SofxMq6/fREf/aMOD24/QhQB9N2+A6fOjI4r57GjvySRQVtuhrnJDPOF93C9RYFEfPP8NBpFAoBMkgC3eXoajQCFckCuKtz+LGmJRCJZ7eGSk4vCTaBKS0uPNrWq9kN8VNGH//rSBZ0iikXLOB784TEc8QACai0cPZ0Yr7qChtlP8dXgADr/+BgB0w9wMd6FX976DW5+vQBIgLYf1WD8vzvR9dkv8EB2GRfTOAXdi9vtzuhaIiEsmqHAk1zMUPjzn/+MtrY2/sIgPoueQRmu/KAG0f6b+Ez7c3zczh6UuWAwiMHBQfzwhz+EREKfu+Ro6CdIwBoaGjA9Pc2Wc0fRgPPqp/j095/ibvSH+IcsBhsATE9Po6GhgYKNZAX13HiSi54bAIyNjSGVSuHcuXNsk6A8f/4c0WgUFy5cYJsIyQh9RApce/tG9+nx48cIhUJsc96LxWIYGRlBJBJBR0cH20xIxqjnxpNc9dy2zM3NwWKxoKKiAiaTCUVFRZBKpexheSGVSiEUCsHpdMJqtaK+vh7Nzc3sYYQcCYUbT3IdbtgcAGu32+FyuRAKhaDT6eByudjDjpVWq0UoFIJarYZer0dFRQUKCzMfOkLIfijceMJHuBFCXqFrboQQUTpR4ZZMJhEIBLC6uoq1tTWaR0uIiJ2I09JkMgmbzfZy45TtpFIpqqqqYDQa2aasotNSQvgl+p5bPB7HxMTEnsGGzeBbXFzkdzAsISTnRB9u8/PziMc3Z3a/RiAQgNVqZcuEEIESdbi53W4EAgG2vC+Hw4FgMMiWCSECJOprbi9evEh7VdeysjLU1tay5SPL9TW3VCpFN0eIKGRr8HnehlskEoFMJoNcLmebDu3p06fguK31sQ9HpVKhra2NLR9ZrsItGAxiZWUFiUSCbSJEkGQyGcrLy6HVatmmtOTdaanP58Po6CgmJibw7NkzTE1NIRaLsYcdSrrBBkBQOy8Fg0FYrVYKNiIqHMfBZrPB6/WyTWnJq3Dzer2wWCw7bgAEg8GMA04mk7GlA2WrS8yHpaUltkSIaCwvL7OltORNuIXDYczMzLBlAEAikcCLFy/S3o1crVazpQMJZZ4jx3Fpfz8IEZpMOjVb8ibcFhcX2dIOsVgMKysrbPm1Mlmh1mBIcy+6YyKkHiYhmTrKwqWZf2UWbU2FOsjq6mpa15cMBkNam40olUqUlZWx5bxUUFCAkpIStkyIaCgUiiPdUDz2cEsmk7Db7Wx5T6lU6tDHbqmrq2NLe5LJZIJbU8xgMBzpk42QfFZRkcnmkK8c+1AQm82G1dVVtvxaLS0tL6+nhcNh+Hw+SCQSGI3GPX/Zw+EwZmdn9z1/VyqVaGpqgkqlYpuyJldDQdbX1+F2uxEKhRCPx/fs2QrlOiI5OSKRCFuCXC6HQqGAWq2GTqc78qWXYw23WCyGsbExtnwgjUaDN954A06nc8e1OqVSCbPZvG9X1ul0wuv1vhzsKpfLUVZWduTxNIeRq3AjhOztWMMtkxkEW8rLy/e8wVBcXJyXp5cUboTwa/c5HE98Pl/GwQZgz2ADAL/fD4/Hw5YJISfMsYTb+vp6TlfgWFxc5K33SQjJT8cSbg6HY9+L+9nAcVxOw5MQkv94DzeO4448reIwXC5XWssdEULEhfdwW1pa4u2UcX5+ni0RQk4IXsMtEonsu9x3Lmzt40kIOXl4HQoyOTl5qGlW2VRQUICzZ8/uO/aNL7kaChKPx+H1ehGLxcBx3Ms/AFBUVMQeTsguwWAQEokEUqkUcrkcMpns5UBaIeMt3DweD2ZnZ9kyL3Q6HRoaGtgyr3IRbqFQCFarlVbgJTmhVqtzsio1X3g7LeXjJsJ+PB7PkcbU5Sun00nBRnImHA7D5XKxZcHgJdxisdiec8n4dNCSSkLDcdyxf0+J+PF9GSmbeAu34xaLxUQ1c2GvBQIIyTYh/5zx8s7TWVMtl4T8KcSSSCR0w4DknJB/xngLt0xWxc02hULBlgTt1KlTefPBQcRHp9OhtLSULQsGb3dLk8kklpeXsba2lpPnP4her0ddXR0KCgrYJl7k4m7plkAgkBen/kQcCgoKoFarBb8OIG/htl0wGOT1Lp9CoTj2Hk4uw40QstuxhNtJROFGCL94ueZGCCF8o3AjhIgShRshRJQo3AghokThRggRJQo3QogoUbgRQkSJwk0EotHorrXygsGg6FZCISQdNIiXJ7kaxOvz+WCxWLC8vIz6+vqX9VAoBJfLhebmZjQ1Ne34GkJOAgo3nuQq3AYHBw/sof3N3/wNtFotWyZE1Oi0VOAOM0c3lUrtLKy70feH36K7pxddv7mNvpWdzXtx9g9gmi3uYeWb27j9VS/u3b6HZ+HNor0Xt+4823Hcs87/wM2vbJuPptH9n7fQe4j3scU/0osh56vHsefd+OROL3o/70SfHYC9D52fd6Nr833sascK7v/uE3Td6ULXwNb7IGIivXHjxo3thVAodKhfGJKeXE3et1qtaG9vx+XLl9HW1rbrj91uR1VVFVQq1asv8k9hcLkG16++hdZmA1IROUqlCxi414t+SxCGxiqkJoYwMDWMoYF5yBuaUBrxI2Uywj/aiyfDQxgaD8NwpgpFOxZZiSGYNKHjrXaYuVF8F2yB2bCC3u9WIS/UoLnu1MsjVyfn4CuIoLS5AcWTjzDikUBT3wLT6gD+1NuPkbkwDI1V8I71ov/bUQR0Miz0bL0/HZYGHuK5rwRN9XrIAfiDcjRf7kBLsR2PLVpIFy0o/vEH+Ev9Ar4d06LSULqjvcW0iMnVGrS3NqGjrRKy41kshuQQ9dwEbmsJp7GxMbjdbjx9+hQ+nw9PnjxBIBDYe4mnkg5cO+PAl7+9hZudQ/ArlZj4ahj43lVca/Gj/+EKwk4b0PwhfnoZmJsBwk4n3ADcc27orv0Uf3vajSkH+8RKlNeXQxmeRvesHm+bgfmHT6H7fhs07KFQotEUw5QVmLarUFcJAEmEJKfx7vvXcFW/8fzuOTcq/u5DKL/b/v78MOn0ON3aCPXms+nr66BPrWBgMIbGi0ZEY9zGT7dRj+JUclc74hpoimTQyOdxp3MA4tthg1C4iUR1dTWKiopQW1sLtVqN+vr6/dfjcoxjQvouPvz4Z/j535dj4psJcJIkQtYZzPiKcbpcAUAPXTkApQrb+nxAsR4mCaBU7qi+4hpC1z0Hzn3wVyiXTGNibgWjn9/DlGUI9y07D1W2GRGb7IVVUotqAEAI8yN96H9mgyexedDm6+1+f4zwDO5/MYziq+/jnBqQSWUbdZcfYYl0VztSatS2noHx9GWYlW6kcUZMBILCTeC2LiH4fD7E43H4fD4kEgl4PB4kEom9LzEYKxB79Ak673Sh884MdG80oqlWA/cyh9DiNJzru/tZ+3H2d2Pg5bUvG+5//gT+Ag+e3O3CgPUM3v+3n+FfPr4Gc9PbuMretC08B6PXAjTWvSwlIYVK7ofFugD/ti0v2PdXblBi/snEZo8rhid/vId5LomZni7cH/ej9Q0Fpu4OobffDePZ4l3tUPox0XMfQ990Y0b3Js68eikiEnS3lCe5uls6NDSEZDK5793Q2dlZXL16FWr11glcdsUmn2Gh9hzO7NNJJOS4ULjxJFfhlkgk4PV62fJLCoUCJSUlbJkQ0aNw40muwo0Qsrdd4RYMBrc/JFkk5G3SCBGaXeFGCCFiQHdLCSGiROFGCBElCjdCiChRuBFCRInCjRAiShRuhBBRonAjhIgShRshRJQo3AghokThRggRJQo3Qogo7Zpb6na7tz8khJC8odfr2dK+doVbJBLZ/pAQQvLGvkvn72FXuBFCiBjQNTdCiChRuBFCRInCjRAiShRuhBBRonAjhIgShRshRJQo3AghokThRggRJQo3QogoUbgRQkSJwo0QIkoUboQQUdo1cT4cDm9/SLJIrVazpaxKJpNYWlqCy+VCKBRCSUkJPB4Pe9ix0mg0iEQiUKvVMBgMqKiogEKhYA8j5Mh2hZvD4UAymdxeIlmg0WhQXFzMlrNmYWEBFosFRqMRJpMJGo0GUqmUPSwvrK+vIxgMwul0wm63o6mpCQ0NDexhhBwJhRtPchluY2NjCIfDaGlpgVarZZvzWiQSwfPnzyGRSNDR0cE2E5IxuuYmcBMTE+A4Dn/xF38huGDD5uKDb775JuRyOUZGRthmQjJG4SZgdrsdPp9PFD2etrY2cByH+fl5tomQjFC4Cdjs7CzOnDnDlgXLbDZjdnYWtDg0yQYKN4FyuVyQy+UwGAxsk2BptVrodDqsrKywTYSkjcJNoDweT1o7AW1wou+zPjgBABwWv7yJXw/uMVQkPIvZVbaYPuefO9G38WKHptfr8274ChEmCjeBikajGY2bi4QiG8H2fzdxt/A6/vWSDgDABQII+KLgAHCjD/BgduPvSHEI+AKIcptPsPmY4zhE4xslLvzqa5HiEI1ziPqi0F26jstpdizVajXtwEayQnrjxo0b2wuhUIiueeSAQqGAUqlkyxlbXV1FYWFhmsNLwph9No/Y8j18Lfkn/PuPygEAi92/QJddBclaD34/rERd8gXGfOUw19nR9auv4VdzGO5+CK6lHKP/0wmbKoWx7lt46G3FucgX+FVPECpuGF/c9aC5+gV+/ct+rEbWkbT2YEx7Ho1F7PvYXzQahdfrRWVlJdtESFqo5yZQSqUSsViMLR/MOYIJw7swjt3F083JKDVXPsKlSoCLJRANxVBZqYW2oQG66cdY1NWgCDI0mDzo6/0OyzXv4a/fuoyfXDEDAKaecLj0z1dw8Xsf4T39OB55ANUbV/CTDy6iYucrH0o0GqUZCyQrKNwEqri4GF6vly0fzHgZ19++iI/+UYcHtx8higD6bt+BU2dGx5Xz2NFfksigLTfD3GSG+cJ7uN6iQCK+eX4ajSIBQCZJgNs8PY1GgEI5IFcdfuNclsfjSbM3SsjeKNwEymg0wu12Z359qvZDfFTRh//60gWdIopFyzge/OExHPEAAmotHD2dGK+6gobZT/HV4AA6//gYAdMPcDHehV/e+g1ufr0ASIC2H9Vg/L870fXZL/BAdhkX0zgFZXEch+XlZZhMJraJkLTR9Cue5GL6lcViQSQSwdmzZ9mm3IjPomdQhis/qEG0/yY+0/4cH7ezB2VucnISqVQKra2tbBMhaaOem4A1NTUhHA5jbm6ObcoNRQPOq5/i099/irvRH+IfshhsVqsVa2trohqUTI4X9dx4koueGzYnng8PD8NkMqG5uZltFoS5uTksLi7iwoULOfkekZOJwo0nuQo3AEgkEhgfH0ckEkFNTQ1MJhPkcjl7WF7hOA5ra2tYXFyERCJBW1sbCgszvxFBCIvCjSe5DLctDofj5WKVcrkcer0ePp+PPexYFRYWIhgMIhaLwWAwoLKyEhUVmQwaIeT1KNx4wke4bReNRvP2/7GgoCCj2RWEpIPCjSd8hxshJ92JvFsaDoczG91PCBGME9Nzc7vdWFlZ2THoVSKRQKPRoLq6OucXs6nnRgi/RB9uqVQKc3NzB05VyvWFbQo3Qvgl+tNSm812YLBhc8nutbU1tkwIEShRh1s4HIbTefjVEm02GxKJBFsmhAiQqMMt3eWqk8kkVlezsAQtIeTYifqa27Nnz9LuianVarS0tLDlI8vVNbdkMgm3241QKIR4PL7v/102F8ok5Cj2G6kglUohl8uh0Wig0+mOPMsm78ItFotheXkZPp8PUqkUBoMBp06dgkSSfifz8ePHbOlAUqk0J1vl5SLcYrEY5ubmaOVkIkq1tbVHGuydfmLkUDQaxdTUFFwuFziOQywWg91uh8ViQSqVYg8/kFQqZUsHElJQrK2tCer9EpIOu93OltKSN+GWSCTw4sWLPU8jA4EAZmdn2fKBVCoVWzqQUE7f1tfX4ff72TIhopFIJPbMg8PKm3Cz2WyIxzfXq96Dz+eD2+1my69VWlrKlg6Uydcch+O8dEAIXzI5Y9uSF+EWCoUOFVxLS0ts6bWMRmNap6ZSqRSnTp1iy3lJJpOl9W8jRIiOciaVF+G2sLDAlvYUj8fTGqohlUpx+vRptryv+vp6QQVGVVUVWyJENI66veOxh5vT6Uxrk5Pl5eUd5+HJZBKBQADh8OY+dYyysjJUV1ez5V3q6+tRUlLClvOaRqNBbW0tioqKUFBQwDYTIjgFBQVQKBSorq4+8u/jsQ4FSSaTGBsbA8dtbWd+OAaDAXV1dQgGg5idnX0Zdnq9HrW1tXsOG9m687r99Fcul6OsrAxlZWU53yszF0NBWHTnlAhdNj+kjzXcrFYrHA4HWz6UpqYmzM/P7wrGU6dOpXUqyhc+wo0Q8sruLg5PotFoxsGGzW3t2GADgNXV1X1PUQkhJ8exhdthbyJkYn5+nk7RCDnhjiXcvF4vgsEgW86aSCRypF4hIUT4eA+39fV1WK1Wtpx1drv9tYOCCSHixnu4ra6u8hI6WyvwEkJOJl7DjeM4LC8vs+WcCQaDh5r5QAgRH16HgszPz8PlcrHlnJLL5Th79mxWx89kIpdDQbY2OSYkGyQSCQoLCzNaeCKf8BZu4XAYz58/Z8u8qKioOPJUjqPKRbhxHAebzZbWDA9CDkuv1wtmrvVeeDst5fN0lLWysoJoNMqWBY/dqpCQbHK73fD5fGxZMHgJN47jDrUDVa6sr69jcXGRLQtaKpVCIBBgy4RklZDXDOQl3PJhxkAgEBBVGOTi0gEhLCEPhucl3GQyGVs6FkL+FGLJ5XLBX/Al+e8oexgcN17CTa1W58U3aa/VQoSsrKyMLRGSNYWFhTAYDGxZMHi7WxqLxTA7O3tsp6hKpRJms/nI24VlKhd3S7H5ffV6vYhGo+A4DhzH7ViaOR8+VEj+2v77uLW1nkwmg1qthl6vP/YhVEfBW7htCQaD8Pv9vH7T5HI5dDrdsa6ym6twI4TsjfdwO6ko3Ajhl7guQhFCyCYKN0KIKFG4EUJEicKNECJKFG6EEFGicCOEiBKFGyFElCjcRIDjOHg8nh21eDwu6OVqCDkqCjeBSyQSsFqtGBwchNPpfPlnbm4Ojx8/poAjJxbNUOBJrmYoPHr06MCNcH784x/THFNy4lDPTeA4jmNLuyQSiZ2FdTf6/vBbdPf0ous3t9G3srN5L87+AUyzxT2sfHMbt7/qxb3b9/Bsa062vRe37jzbcdyzzv/Aza9sm4+m0f2ft9B7iPexxT/SiyHnq8ex59345E4vej/vRJ8dgL0PnZ93o2vzfexqxwru/+4TdN3pQtfA1vsgYiK9cePGje2FUCgk6AXq8pVCoYBSqWTLR2az2VBTU4PW1lbU1dXt+rO2tobq6uqda7/5pzC4XIPrV99Ca7MBqYgcpdIFDNzrRb8lCENjFVITQxiYGsbQwDzkDU0ojfiRMhnhH+3Fk+EhDI2HYThThaId6x/EEEya0PFWO8zcKL4LtsBsWEHvd6uQF2rQXPdqPf7VyTn4CiIobW5A8eQjjHgk0NS3wLQ6gD/19mNkLgxDYxW8Y73o/3YUAZ0MCz1b70+HpYGHeO4rQVO9HnIA/qAczZc70FJsx2OLFtJFC4p//AH+Ur+Ab8e0qDSU7mhvMS1icrUG7a1N6GirhIy/dRwIT6jnJgLFxcVYXV2FVCqF3W6HQqGAzWaDSqXae4mnkg5cO+PAl7+9hZudQ/ArlZj4ahj43lVca/Gj/+EKwk4b0PwhfnoZmJsBwk4n3ADcc27orv0Uf3vajSkH+8RKlNeXQxmeRvesHm+bgfmHT6H7fhs07KFQotEUw5QVmLarUFcJAEmEJKfx7vvXcFW/8fzuOTcq/u5DKL/b/v78MOn0ON3aiK2TbX19HfSpFQwMxtB40YhojNv46TbqUZxK7mpHXANNkQwa+TzudA5APMuYki0UbgK31ctub2+HXq/H+fPnUVJSggsXLkCr1e7dC3eMY0L6Lj78+Gf4+d+XY+KbCXCSJELWGcz4inG6XAFAD105AKUKO9b7LdbDJAGUyn1WAXYNoeueA+c++CuUS6YxMbeC0c/vYcoyhPuWnYcq24yITfbCKqlFNQAghPmRPvQ/s8GzdSa9+Xq73x8jPIP7Xwyj+Or7OKcGZNLN1Z9dfoQl0l3tSKlR23oGxtOXYVa6kcYZMREICjeRGBsbg9vtxtOnT+Hz+fDkyRMEAoG9180zViD26BN03ulC550Z6N5oRFOtBu5lDqHFaTjXd/ez9uPs78bAy2tfNtz//An8BR48uduFAesZvP9vP8O/fHwN5qa3cbVp59ei8ByMXgvQWPeylIQUKrkfFusC/NtGt7Dvr9ygxPyTic0eVwxP/ngP81wSMz1duD/uR+sbCkzdHUJvvxvGs8W72qH0Y6LnPoa+6caM7k2cefVSRCTobilPcnW3dGBgACUlJfsuOf7o0SO88847OXltAIhNPsNC7TmcKWRbCDleFG48yVW4eb1eLC0tseWXlEolmprYLhMh4kfhxpNchRshZG+7wo2dxkOyQyqVUrgRwqNd4UYIIWJAd0sJIaJE4UYIESUKN0KIKFG4EUJEicKNECJKFG6EEFGicCOEiBKFGyFElP4fwe1ZeJdOGsUAAAAASUVORK5CYII=;" vertex="1" parent="1">
          <mxGeometry x="-964" y="1386" width="288" height="263" as="geometry" />
        </mxCell>
        <mxCell id="4oO6HebWnoat48gNqgbb-58" value="" style="rounded=1;whiteSpace=wrap;html=1;arcSize=5;fontColor=#999999;strokeColor=#999999;" vertex="1" parent="1">
          <mxGeometry x="-668" y="1382" width="298" height="279" as="geometry" />
        </mxCell>
        <mxCell id="4oO6HebWnoat48gNqgbb-60" value="&lt;font style=&quot;font-size: 11px;&quot;&gt;Lihat Berita Lainnya &amp;gt;&amp;gt;&lt;/font&gt;" style="strokeWidth=1;shadow=0;dashed=0;align=center;html=1;shape=mxgraph.mockup.buttons.button;strokeColor=#999999;fontColor=#000000;mainText=;buttonStyle=round;fontSize=17;fontStyle=1;fillColor=light-dark(#dedede, #7d8c9b);whiteSpace=wrap;" vertex="1" parent="1">
          <mxGeometry x="-755.5" y="1248" width="157" height="22" as="geometry" />
        </mxCell>
        <mxCell id="4oO6HebWnoat48gNqgbb-62" value="Lihat Semua &amp;gt;" style="text;html=1;align=center;verticalAlign=middle;whiteSpace=wrap;rounded=0;fontStyle=1;fontSize=10;fontColor=#666666;" vertex="1" parent="1">
          <mxGeometry x="-449" y="1386" width="74" height="19" as="geometry" />
        </mxCell>
        <mxCell id="4oO6HebWnoat48gNqgbb-63" value="" style="endArrow=none;html=1;rounded=0;fontColor=#999999;strokeColor=#999999;" edge="1" parent="1">
          <mxGeometry width="50" height="50" relative="1" as="geometry">
            <mxPoint x="-651" y="1489" as="sourcePoint" />
            <mxPoint x="-391" y="1489" as="targetPoint" />
          </mxGeometry>
        </mxCell>
        <mxCell id="4oO6HebWnoat48gNqgbb-65" value="" style="rounded=1;whiteSpace=wrap;html=1;arcSize=50;strokeColor=none;fillColor=#E6E6E6;" vertex="1" parent="1">
          <mxGeometry x="-649" y="1420" width="219" height="8" as="geometry" />
        </mxCell>
        <mxCell id="4oO6HebWnoat48gNqgbb-66" value="" style="rounded=1;whiteSpace=wrap;html=1;arcSize=50;strokeColor=none;fillColor=#E6E6E6;" vertex="1" parent="1">
          <mxGeometry x="-649" y="1435" width="176" height="8" as="geometry" />
        </mxCell>
        <mxCell id="4oO6HebWnoat48gNqgbb-68" value="&lt;font style=&quot;font-size: 9px;&quot;&gt;Diupdate: 10 Maret 2025&lt;/font&gt;" style="text;html=1;align=center;verticalAlign=middle;whiteSpace=wrap;rounded=0;fontColor=#999999;" vertex="1" parent="1">
          <mxGeometry x="-657" y="1439" width="118" height="30" as="geometry" />
        </mxCell>
        <mxCell id="4oO6HebWnoat48gNqgbb-69" value="Download" style="rounded=1;whiteSpace=wrap;html=1;fontSize=10;arcSize=24;strokeColor=#CCCCCC;fontColor=#999999;" vertex="1" parent="1">
          <mxGeometry x="-649" y="1466" width="79" height="15" as="geometry" />
        </mxCell>
        <mxCell id="4oO6HebWnoat48gNqgbb-70" value="" style="rounded=1;whiteSpace=wrap;html=1;fontSize=10;arcSize=24;strokeColor=#CCCCCC;fontColor=#999999;" vertex="1" parent="1">
          <mxGeometry x="-564" y="1466" width="22" height="15" as="geometry" />
        </mxCell>
        <mxCell id="4oO6HebWnoat48gNqgbb-71" value="" style="strokeColor=#999999;verticalLabelPosition=bottom;shadow=0;dashed=0;verticalAlign=top;strokeWidth=2;html=1;shape=mxgraph.mockup.misc.shareIcon;fontColor=#CCCCCC;" vertex="1" parent="1">
          <mxGeometry x="-558.5" y="1469" width="11.5" height="10" as="geometry" />
        </mxCell>
        <mxCell id="4oO6HebWnoat48gNqgbb-84" value="" style="endArrow=none;html=1;rounded=0;fontColor=#999999;strokeColor=#999999;" edge="1" parent="1">
          <mxGeometry width="50" height="50" relative="1" as="geometry">
            <mxPoint x="-650" y="1569" as="sourcePoint" />
            <mxPoint x="-390" y="1569" as="targetPoint" />
          </mxGeometry>
        </mxCell>
        <mxCell id="4oO6HebWnoat48gNqgbb-85" value="" style="rounded=1;whiteSpace=wrap;html=1;arcSize=50;strokeColor=none;fillColor=#E6E6E6;" vertex="1" parent="1">
          <mxGeometry x="-648" y="1500" width="219" height="8" as="geometry" />
        </mxCell>
        <mxCell id="4oO6HebWnoat48gNqgbb-86" value="" style="rounded=1;whiteSpace=wrap;html=1;arcSize=50;strokeColor=none;fillColor=#E6E6E6;" vertex="1" parent="1">
          <mxGeometry x="-648" y="1515" width="176" height="8" as="geometry" />
        </mxCell>
        <mxCell id="4oO6HebWnoat48gNqgbb-87" value="&lt;font style=&quot;font-size: 9px;&quot;&gt;Diupdate: 10 Maret 2025&lt;/font&gt;" style="text;html=1;align=center;verticalAlign=middle;whiteSpace=wrap;rounded=0;fontColor=#999999;" vertex="1" parent="1">
          <mxGeometry x="-654" y="1519" width="118" height="30" as="geometry" />
        </mxCell>
        <mxCell id="4oO6HebWnoat48gNqgbb-88" value="Download" style="rounded=1;whiteSpace=wrap;html=1;fontSize=10;arcSize=24;strokeColor=#CCCCCC;fontColor=#999999;" vertex="1" parent="1">
          <mxGeometry x="-648" y="1546" width="79" height="15" as="geometry" />
        </mxCell>
        <mxCell id="4oO6HebWnoat48gNqgbb-89" value="" style="rounded=1;whiteSpace=wrap;html=1;fontSize=10;arcSize=24;strokeColor=#CCCCCC;fontColor=#999999;" vertex="1" parent="1">
          <mxGeometry x="-563" y="1546" width="22" height="15" as="geometry" />
        </mxCell>
        <mxCell id="4oO6HebWnoat48gNqgbb-90" value="" style="strokeColor=#999999;verticalLabelPosition=bottom;shadow=0;dashed=0;verticalAlign=top;strokeWidth=2;html=1;shape=mxgraph.mockup.misc.shareIcon;fontColor=#CCCCCC;" vertex="1" parent="1">
          <mxGeometry x="-557.5" y="1549" width="11.5" height="10" as="geometry" />
        </mxCell>
        <mxCell id="4oO6HebWnoat48gNqgbb-92" value="" style="rounded=1;whiteSpace=wrap;html=1;arcSize=50;strokeColor=none;fillColor=#E6E6E6;" vertex="1" parent="1">
          <mxGeometry x="-648" y="1581" width="219" height="8" as="geometry" />
        </mxCell>
        <mxCell id="4oO6HebWnoat48gNqgbb-93" value="" style="rounded=1;whiteSpace=wrap;html=1;arcSize=50;strokeColor=none;fillColor=#E6E6E6;" vertex="1" parent="1">
          <mxGeometry x="-648" y="1596" width="176" height="8" as="geometry" />
        </mxCell>
        <mxCell id="4oO6HebWnoat48gNqgbb-94" value="&lt;font style=&quot;font-size: 9px;&quot;&gt;Diupdate: 10 Maret 2025&lt;/font&gt;" style="text;html=1;align=center;verticalAlign=middle;whiteSpace=wrap;rounded=0;fontColor=#999999;" vertex="1" parent="1">
          <mxGeometry x="-656" y="1600" width="118" height="30" as="geometry" />
        </mxCell>
        <mxCell id="4oO6HebWnoat48gNqgbb-95" value="Download" style="rounded=1;whiteSpace=wrap;html=1;fontSize=10;arcSize=24;strokeColor=#CCCCCC;fontColor=#999999;" vertex="1" parent="1">
          <mxGeometry x="-648" y="1627" width="79" height="15" as="geometry" />
        </mxCell>
        <mxCell id="4oO6HebWnoat48gNqgbb-96" value="" style="rounded=1;whiteSpace=wrap;html=1;fontSize=10;arcSize=24;strokeColor=#CCCCCC;fontColor=#999999;" vertex="1" parent="1">
          <mxGeometry x="-563" y="1627" width="22" height="15" as="geometry" />
        </mxCell>
        <mxCell id="4oO6HebWnoat48gNqgbb-97" value="" style="strokeColor=#999999;verticalLabelPosition=bottom;shadow=0;dashed=0;verticalAlign=top;strokeWidth=2;html=1;shape=mxgraph.mockup.misc.shareIcon;fontColor=#CCCCCC;" vertex="1" parent="1">
          <mxGeometry x="-557.5" y="1630" width="11.5" height="10" as="geometry" />
        </mxCell>
      </root>
    </mxGraphModel>
  </diagram>
</mxfile>
